<?xml version="1.0" standalone="no"?>
<!DOCTYPE svg PUBLIC "-//W3C//DTD SVG 1.1//EN" "http://www.w3.org/Graphics/SVG/1.1/DTD/svg11.dtd" >
<svg>
<metadata>
Created by FontForge 20090914 at Mon Jul 11 23:34:12 2016
 By www-data
Copyright (c) 2016 by Anastasia Mihaleva &#38; Jovanny Lemonad. All rights reserved.
</metadata>
<defs>
<font id="USSR-STENCIL" horiz-adv-x="540" >
  <font-face 
    font-family="USSR STENCIL"
    font-weight="400"
    font-stretch="normal"
    units-per-em="1000"
    panose-1="2 0 5 3 6 0 0 2 0 4"
    ascent="800"
    descent="-200"
    x-height="500"
    cap-height="700"
    bbox="-49 -345 1180 950"
    underline-thickness="50"
    underline-position="-50"
    unicode-range="U+000D-U+F6D4"
  />
<missing-glyph horiz-adv-x="220" 
 />
    <glyph glyph-name=".notdef" horiz-adv-x="220" 
 />
    <glyph glyph-name=".null" horiz-adv-x="0" 
 />
    <glyph glyph-name=".null" horiz-adv-x="0" 
 />
    <glyph glyph-name="nonmarkingreturn" unicode="&#xd;" horiz-adv-x="0" 
 />
    <glyph glyph-name="space" unicode=" " horiz-adv-x="220" 
 />
    <glyph glyph-name="exclam" unicode="!" horiz-adv-x="305" 
d="M245 550l-45 -340h-95l-45 340v150h185v-150zM85 0h135v140h-135v-140z" />
    <glyph glyph-name="quotedbl" unicode="&#x22;" horiz-adv-x="430" 
d="M145 420h-60l-35 165v115h130v-115zM345 420h-60l-35 165v115h130v-115z" />
    <glyph glyph-name="numbersign" unicode="#" horiz-adv-x="620" 
d="M225 230h120v-80h-120v-150h-110v150h-65v80h65v240h-65v80h65v150h110v-470zM395 470h-120v80h120v150h110v-150h65v-80h-65v-240h65v-80h-65v-150h-110v470z" />
    <glyph glyph-name="dollar" unicode="$" horiz-adv-x="560" 
d="M500 375v-310l-45 -45h-130v-80h-90v80h-169v95h279v215h-50v90h160zM60 375v250l45 45h130v80h90v-80h139v-95h-249v-155h30v-90h-140z" />
    <glyph glyph-name="percent" unicode="%" horiz-adv-x="865" 
d="M655 700l-310 -700h-135l310 700h135zM225 560h120v100l-40 40h-215l-40 -40v-100h120v80h55v-80zM225 420h-55v80h-120v-100l40 -40h215l40 40v100h-120v-80zM695 200h120v100l-40 40h-215l-40 -40v-100h120v80h55v-80zM695 60h-55v80h-120v-100l40 -40h215l40 40v100
h-120v-80z" />
    <glyph glyph-name="ampersand" unicode="&#x26;" horiz-adv-x="655" 
d="M335 565l70 55h-100l-45 80h240l50 -50l-155 -195zM525 111l-325 589h-80l-40 -45l360 -655h205l-45 111h-75zM265 100h-95v125l45 50l-60 105l-105 -115v-220l45 -45h215l45 50l-50 90zM600 340l-45 115l-95 -115l55 -95z" />
    <glyph glyph-name="quotesingle" unicode="'" horiz-adv-x="230" 
d="M145 420h-60l-35 165v115h130v-115z" />
    <glyph glyph-name="parenleft" unicode="(" horiz-adv-x="320" 
d="M200 30l15 -30h60v-115h-140l-65 125v565l65 125h140v-115h-60l-15 -30v-525z" />
    <glyph glyph-name="parenright" unicode=")" horiz-adv-x="320" 
d="M120 555l-15 30h-60v115h140l65 -125v-565l-65 -125h-140v115h60l15 30v525z" />
    <glyph glyph-name="asterisk" unicode="*" horiz-adv-x="410" 
d="M155 510l-135 20l35 95l120 -60l-20 135h100l-20 -135l120 60l35 -95l-135 -20l95 -100l-85 -60l-60 125l-60 -125l-85 60z" />
    <glyph glyph-name="plus" unicode="+" horiz-adv-x="525" 
d="M200 110v165h-150v110h150v165h125v-165h150v-110h-150v-165h-125z" />
    <glyph glyph-name="comma" unicode="," horiz-adv-x="215" 
d="M105 -115v115h-65v140h135v-255h-70z" />
    <glyph glyph-name="hyphen" unicode="-" horiz-adv-x="410" 
d="M50 265v105h310v-105h-310v0z" />
    <glyph glyph-name="period" unicode="." horiz-adv-x="215" 
d="M175 0h-135v140h135v-140z" />
    <glyph glyph-name="slash" unicode="/" horiz-adv-x="360" 
d="M330 700l-170 -700h-130l170 700h130z" />
    <glyph glyph-name="zero" unicode="0" horiz-adv-x="600" 
d="M70 45v285h175v-220h60v-110h-190zM295 590v110h190l45 -45v-275h-175v210h-60zM355 0v330h175v-285l-45 -45h-130zM245 380h-175v275l45 45h130v-320z" />
    <glyph glyph-name="one" unicode="1" horiz-adv-x="385" 
d="M315 700v-700h-185v590h-100v110h285z" />
    <glyph glyph-name="two" unicode="2" horiz-adv-x="550" 
d="M485 0h-425v120h425v-120zM485 390l-200 -220h-225l250 280v250h130l45 -45v-265zM190 630v-125h-120v150l45 45h145v-70h-70z" />
    <glyph glyph-name="three" unicode="3" horiz-adv-x="565" 
d="M490 610l-225 -205v-75h-180v75l190 205h-215v90h430v-90zM460 380l45 -45v-290l-45 -45h-140v380h140zM105 0l-45 45v130h130v-65h80v-110h-165z" />
    <glyph glyph-name="four" unicode="4" horiz-adv-x="570" 
d="M500 0h-175v475h175v-475zM30 190l145 510h160l-115 -420h55v-90h-245z" />
    <glyph glyph-name="five" unicode="5" horiz-adv-x="565" 
d="M225 600v-180h45v-70h-200v350h390v-100h-235zM495 45v330l-45 45h-130v-420h130zM115 0h155v120h-70v55h-130v-130z" />
    <glyph glyph-name="six" unicode="6" horiz-adv-x="600" 
d="M70 45v425l210 230h185l-220 -240v-350h75v-110h-205zM490 0l45 45v0v345v0l-45 45h-195v-95h75v-340h120z" />
    <glyph glyph-name="seven" unicode="7" 
d="M530 700l-260 -700h-185l260 700h185zM290 700h-240v-135h190z" />
    <glyph glyph-name="eight" unicode="8" horiz-adv-x="595" 
d="M325 0v110h35v200h-35v100h35v210h-35v80h155l45 -45v-240l-45 -45l45 -45v-280l-45 -45h-155zM115 0l-45 45v280l45 45l-45 45v240l45 45h155v-80h-35v-210h35v-100h-35v-200h35v-110h-155z" />
    <glyph glyph-name="nine" unicode="9" horiz-adv-x="595" 
d="M530 655v-425l-210 -230h-185l220 240v350h-75v110h205zM110 700l-45 -45v0v-345v0l45 -45h195v95h-75v340h-120z" />
    <glyph glyph-name="colon" unicode=":" horiz-adv-x="225" 
d="M180 0h-135v140h135v-140zM180 360h-135v140h135v-140z" />
    <glyph glyph-name="semicolon" unicode=";" horiz-adv-x="225" 
d="M180 360h-135v140h135v-140zM110 -115v115h-65v140h135v-255h-70z" />
    <glyph glyph-name="less" unicode="&#x3c;" horiz-adv-x="440" 
d="M390 20l-380 240l380 240v-130l-190 -110l190 -110v-130z" />
    <glyph glyph-name="equal" unicode="=" horiz-adv-x="525" 
d="M475 170h-425v110h425v-110zM475 375h-425v110h425v-110z" />
    <glyph glyph-name="greater" unicode="&#x3e;" horiz-adv-x="440" 
d="M50 500l380 -240l-380 -240v130l190 110l-190 110v130z" />
    <glyph glyph-name="question" unicode="?" horiz-adv-x="505" 
d="M455 654v-234l-180 -210h-100l115 245v245h120zM180 620h60v80h-155l-45 -45v-145h140v110zM155 0h135v140h-135v-140z" />
    <glyph glyph-name="at" unicode="@" horiz-adv-x="945" 
d="M445 610l45 -45v-65h-80v-210h80v-65l-45 -45h-130l-45 45v340l45 45h130zM830 790l45 -45v-280h-85v245h-275v80h315zM445 790v-80h-290v0v-245h-85v280l45 45h330zM515 80h360v-80h-360v80zM790 395h85v-170l-45 -45h-255l-45 45v385h140v-320h120v105zM155 80h290v-80
h-330l-45 45v350h85v-315z" />
    <glyph glyph-name="A" unicode="A" horiz-adv-x="650" 
d="M255 385h95v-110h-95v-275h-185v655l45 45h140v-315zM580 655l-45 45h-230v-110h90v-590h185v655z" />
    <glyph glyph-name="B" unicode="B" horiz-adv-x="665" 
d="M595 330v-330h-285v110h100v220h-100v100h100v160h-100v110h229l46 -45v-220l-55 -55zM255 700v-700h-185v700h185z" />
    <glyph glyph-name="C" unicode="C" horiz-adv-x="520" 
d="M470 700v-180h-90v70h-125v-480h125v90h90v-200h-355l-45 45v610l45 45h355z" />
    <glyph glyph-name="D" unicode="D" horiz-adv-x="670" 
d="M600 625v-550l-75 -75h-220v110h110v480h-110v110h220zM70 0h185v700h-185v-700z" />
    <glyph glyph-name="E" unicode="E" 
d="M490 545h-85v45h-150v-480h150v55h85v-165h-420v700h420v-155zM310 410h150v-80h-150v80z" />
    <glyph glyph-name="F" unicode="F" horiz-adv-x="520" 
d="M305 390h145v-95h-145v95zM480 700v-155h-85v45h-140v-590h-185v700h410z" />
    <glyph glyph-name="G" unicode="G" horiz-adv-x="625" 
d="M115 700h140v-700h-140l-45 45v610zM595 295h-255v-55h35v-130h-70v-110h210l45 45v195h35v55zM385 540h175v115l-45 45h-209v-95h79v-65z" />
    <glyph glyph-name="H" unicode="H" horiz-adv-x="705" 
d="M70 700h185v-700h-185v700zM450 700v-265h-145v-110h145v-325h185v700h-185z" />
    <glyph glyph-name="I" unicode="I" horiz-adv-x="325" 
d="M255 700v-700h-185v700h185z" />
    <glyph glyph-name="J" unicode="J" horiz-adv-x="505" 
d="M435 700v-655l-45 -45h-320l-45 45v140h135v-75h90v590h185z" />
    <glyph glyph-name="K" unicode="K" horiz-adv-x="625" 
d="M625 0h-210l-110 250v185l95 265h170l-130 -325zM70 700v-700h185v700h-185z" />
    <glyph glyph-name="L" unicode="L" horiz-adv-x="480" 
d="M450 0h-380v700h185v-590h110v65h85v-175z" />
    <glyph glyph-name="M" unicode="M" horiz-adv-x="880" 
d="M255 700v-700h-185v700h185zM440 260l125 355h10v-320l-120 -245h-30l-120 245v320h10zM810 700v-700h-185v700h185z" />
    <glyph glyph-name="N" unicode="N" horiz-adv-x="765" 
d="M275 650l215 -310v-290l-215 310v290zM70 700h155v-700h-155v700zM695 700v-700h-155v700h155z" />
    <glyph glyph-name="O" unicode="O" horiz-adv-x="660" 
d="M70 45v610l45 45h140v-590h100v-110h-240zM405 0h140l45 45v610l-45 45h-240v-110h100v-590z" />
    <glyph glyph-name="P" unicode="P" horiz-adv-x="615" 
d="M255 0h-185v700h185v-700zM555 245v410l-45 45h-200v-110h60v-280h-60v-110h200z" />
    <glyph glyph-name="Q" unicode="Q" horiz-adv-x="650" 
d="M385 205l255 -185v-20h-255v205zM385 590h-80v110h220l45 -45v-515l-185 135v315zM70 45v610l45 45h140v-590h100v-110h-240z" />
    <glyph glyph-name="R" unicode="R" horiz-adv-x="640" 
d="M640 0l-150 260h-180l125 -260h205zM255 0h-185v700h185v-700zM555 355v300l-45 45h-200v-110h60v-170h-60v-110h200z" />
    <glyph glyph-name="S" unicode="S" horiz-adv-x="550" 
d="M60 395v260v0l45 45h350v-150h-70v40h-140v-240h-140zM490 345v-300v0l-45 -45h-380v160h70v-50h170v280h140z" />
    <glyph glyph-name="T" unicode="T" horiz-adv-x="534" 
d="M20 700h494v-115h-494v115zM360 0v534h-185v-534h185z" />
    <glyph glyph-name="U" unicode="U" horiz-adv-x="670" 
d="M70 45v655h185v-590h110v-110h-250zM415 0v700h185v-655l-45 -45h-140z" />
    <glyph glyph-name="V" unicode="V" horiz-adv-x="625" 
d="M440 60l-70 300l70 340h165zM400 0l-165 700h-215l180 -700h200z" />
    <glyph glyph-name="W" unicode="W" horiz-adv-x="945" 
d="M195 0l-175 700h205l160 -700h-190zM925 700h-170l-55 -335l70 -325zM475 450l70 -450h180l-145 700h-170l-55 -345l70 -310z" />
    <glyph glyph-name="X" unicode="X" horiz-adv-x="640" 
d="M430 0l-85 260v200l75 240h180l-115 -335l145 -365h-200zM10 0l145 365l-115 335h180l75 -240v-200l-85 -260h-200z" />
    <glyph glyph-name="Y" unicode="Y" horiz-adv-x="555" 
d="M200 280l-200 420h205l180 -420v-280h-185v280zM555 700h-160l-60 -200l70 -150z" />
    <glyph glyph-name="Z" unicode="Z" horiz-adv-x="575" 
d="M215 0h-195v20l330 680h195v-20zM290 700h-230v-125h170zM530 125h-195l-60 -125h255v125z" />
    <glyph glyph-name="bracketleft" unicode="[" horiz-adv-x="345" 
d="M190 615v-645h120v-85h-240v815h240v-85h-120z" />
    <glyph glyph-name="backslash" unicode="\" horiz-adv-x="360" 
d="M160 700l170 -700h-130l-170 700h130z" />
    <glyph glyph-name="bracketright" unicode="]" horiz-adv-x="345" 
d="M35 615v85h240v-815h-240v85h120v645h-120z" />
    <glyph glyph-name="asciicircum" unicode="^" horiz-adv-x="480" 
d="M305 700l135 -330h-120l-80 230l-80 -230h-120l135 330h130z" />
    <glyph glyph-name="underscore" unicode="_" horiz-adv-x="430" 
d="M-10 -35h450v-80h-450v80z" />
    <glyph glyph-name="grave" unicode="`" horiz-adv-x="265" 
d="M180 700l55 -170h-65l-140 170h150z" />
    <glyph glyph-name="a" unicode="a" horiz-adv-x="560" 
d="M100 0l-45 45v225l45 45h185v-75h-90v-150h90v-90h-185zM335 0v430h-230v70h350l45 -45v-455h-165z" />
    <glyph glyph-name="b" unicode="b" horiz-adv-x="580" 
d="M370 0v420h-90v80h195l45 -45v-410l-45 -45h-105zM315 0h-255v700h165v-610h90v-90z" />
    <glyph glyph-name="c" unicode="c" horiz-adv-x="435" 
d="M105 0l-45 45v410l45 45h285v-80h-165v-330h180v-90h-300z" />
    <glyph glyph-name="d" unicode="d" horiz-adv-x="580" 
d="M260 500h95v200h165v-700h-165v420h-95v80zM105 500l-45 -45v-410l45 -45h195v90h-90v410h-105z" />
    <glyph glyph-name="e" unicode="e" horiz-adv-x="535" 
d="M435 500l45 -45v-240l-45 -45h-155v90h70v240h85zM60 66l65 -66h350v90h-250v330h75v80h-175l-65 -65v-369z" />
    <glyph glyph-name="f" unicode="f" horiz-adv-x="405" 
d="M105 380h-75v80h75v175l65 65h235v-80h-135v-160h105v-80h-105v-380h-165v380z" />
    <glyph glyph-name="g" unicode="g" horiz-adv-x="570" 
d="M75 -200v90h270v610h120l45 -45v-590l-65 -65h-370zM300 100v-80h-195l-45 45v390l45 45h195v-80h-90v-320h90z" />
    <glyph glyph-name="h" unicode="h" horiz-adv-x="580" 
d="M365 400h-90v100h200l45 -45v-455h-155v400zM60 700h165v-700h-165v700z" />
    <glyph glyph-name="i" unicode="i" horiz-adv-x="285" 
d="M225 0h-165v500h165v-500zM60 700h165v-130h-165v130z" />
    <glyph glyph-name="j" unicode="j" horiz-adv-x="300" 
d="M75 700h165v-130h-165v130zM240 -135v635h-165v-605h-105v-95h205z" />
    <glyph glyph-name="k" unicode="k" 
d="M375 0l-100 200v135l85 165h140l-110 -210l150 -290h-165zM60 700h165v-700h-165v700z" />
    <glyph glyph-name="l" unicode="l" horiz-adv-x="330" 
d="M225 700v-605h85v-95h-250v700h165z" />
    <glyph glyph-name="m" unicode="m" horiz-adv-x="835" 
d="M345 400h-70v55l45 45h135l45 -45v-455h-155v400zM60 0h165v500h-165v-500zM620 400h-70v55l45 45h135l45 -45v-455h-155v400z" />
    <glyph glyph-name="n" unicode="n" horiz-adv-x="590" 
d="M375 400h-100v55l45 45h165l45 -45v-455h-155v400zM60 0h165v500h-165v-500z" />
    <glyph glyph-name="o" unicode="o" horiz-adv-x="575" 
d="M105 0l-45 45v410l45 45h120v-410h75v-90h-195zM470 500l45 -45v-410l-45 -45h-120v410h-75v90h195z" />
    <glyph glyph-name="p" unicode="p" horiz-adv-x="570" 
d="M360 100v320h-90v80h195l45 -45v-390l-45 -45h-195v80h90zM60 -200h165v700h-165v-700z" />
    <glyph glyph-name="q" unicode="q" horiz-adv-x="570" 
d="M300 100v-80h-195l-45 45v390l45 45h195v-80h-90v-320h90zM510 455l-45 45h-120v-700h165v655z" />
    <glyph glyph-name="r" unicode="r" horiz-adv-x="415" 
d="M325 500h80v-120h-130v70zM60 0h165v500h-165v-500z" />
    <glyph glyph-name="s" unicode="s" horiz-adv-x="460" 
d="M85 250l-35 35v180l35 35h285v-70h-165v-180h-120zM375 290l35 -35v-220l-35 -35h-315v80h195v210h120z" />
    <glyph glyph-name="t" unicode="t" horiz-adv-x="380" 
d="M100 420h-60v80h60v200h165v-200h65v-80h-65v-320h75v-100h-240v420z" />
    <glyph glyph-name="u" unicode="u" horiz-adv-x="590" 
d="M215 100h100v-55l-45 -45h-165l-45 45v455h155v-400zM530 500h-165v-500h165v500z" />
    <glyph glyph-name="v" unicode="v" horiz-adv-x="495" 
d="M300 260l55 240h130l-130 -465zM10 500l140 -500h160l-125 500h-175z" />
    <glyph glyph-name="w" unicode="w" horiz-adv-x="740" 
d="M10 500h175l95 -500h-165zM595 500l-15 -195l55 -265l95 460h-135zM325 35l55 305l55 -340h155l-105 500h-165l-45 -205z" />
    <glyph glyph-name="x" unicode="x" horiz-adv-x="530" 
d="M350 0l-60 170v135l56 195h151l-97 -240l130 -260h-180zM0 0l130 260l-97 240h151l56 -195v-135l-60 -170h-180z" />
    <glyph glyph-name="y" unicode="y" horiz-adv-x="520" 
d="M370 500h140l-240 -700h-140zM170 50l70 210l-50 240h-180z" />
    <glyph glyph-name="z" unicode="z" horiz-adv-x="480" 
d="M210 0h-190l235 500h190zM40 400h115l45 100h-160v-100zM450 100h-140l-45 -100h185v100z" />
    <glyph glyph-name="braceleft" unicode="{" horiz-adv-x="385" 
d="M235 205v-235h120v-85h-165l-75 75v235l-75 100l75 100v230l75 75h165v-85h-120v-230l-65 -90z" />
    <glyph glyph-name="bar" unicode="|" horiz-adv-x="330" 
d="M100 700h130v-900h-130v900z" />
    <glyph glyph-name="braceright" unicode="}" horiz-adv-x="385" 
d="M215 295l-65 90v230h-120v85h165l75 -75v-230l75 -100l-75 -100v-235l-75 -75h-165v85h120v235z" />
    <glyph glyph-name="asciitilde" unicode="~" horiz-adv-x="560" 
d="M190 255h-30l-120 -75v115l90 70h85l155 -75h30l120 75v-115l-90 -70h-85z" />
    <glyph glyph-name="nonbreakingspace" unicode="&#xa0;" horiz-adv-x="220" 
 />
    <glyph glyph-name="exclamdown" unicode="&#xa1;" horiz-adv-x="285" 
d="M235 -200h-185v150l45 340h95l45 -340v-150zM75 500h135v-140h-135v140z" />
    <glyph glyph-name="cent" unicode="&#xa2;" horiz-adv-x="435" 
d="M405 0h-105v-115h-85v115h-110l-45 45v410l45 45h110v115h85v-115h90v-90h-165v-320h180v-90z" />
    <glyph glyph-name="sterling" unicode="&#xa3;" horiz-adv-x="600" 
d="M590 0h-560v110h115v490l100 100h240l75 -75v-105h-90v60l-30 30h-100l-40 -40v-460h290v-110zM500 300v90h-150v-90h150zM100 300v90h-70v-90h70z" />
    <glyph glyph-name="currency" unicode="&#xa4;" horiz-adv-x="635" 
d="M95 0v130h-55v90h55v60h-55v90h55v330h160v-700h-160zM530 700h-225v-90h115v-240h-115v-90h225l45 45v330zM500 220h-195v-90h195v90z" />
    <glyph glyph-name="yen" unicode="&#xa5;" horiz-adv-x="615" 
d="M580 310h-130v-73h130v73zM60 237h130v73h-130v-73zM450 110h130v70h-130v-70zM60 110h130v70h-130v-70zM230 280l-210 420h205l190 -420v-280h-185v280zM595 700h-160l-70 -200l70 -150z" />
    <glyph glyph-name="brokenbar" unicode="&#xa6;" horiz-adv-x="330" 
d="M100 150h130v-350h-130v350zM100 700h130v-350h-130v350z" />
    <glyph glyph-name="section" unicode="&#xa7;" horiz-adv-x="509" 
d="M224 585l235 -175v-270l-55 -45h-15l-60 40v230l-205 155v135l45 45h185l45 -45v-75h-90v50h-85v-45zM304 -45l-254 190v260l55 45h15l60 -40v-220l224 -170v-175l-45 -45h-195l-45 45v75h90v-50h95v85z" />
    <glyph glyph-name="dieresis" unicode="&#xa8;" horiz-adv-x="380" 
d="M145 595h-115v105h115v-105zM235 700h115v-105h-115v105z" />
    <glyph glyph-name="copyright" unicode="&#xa9;" horiz-adv-x="860" 
d="M510 290h100v-140h-175v85h75v55zM260 505l35 35h90v-390h-90l-35 35v320zM125 0l-45 45v270h85v-235h240v-80h-280zM455 0v80h240v235h85v-270l-45 -45h-280zM735 700l45 -45v-270h-85v235h-240v80h280zM405 700v-80h-240v-235h-85v270l45 45h280zM510 455h-75v85h175
v-140h-100v55z" />
    <glyph glyph-name="ordfeminine" unicode="&#xaa;" horiz-adv-x="400" 
d="M145 510v-60h65v-70h-135l-30 30v130l30 30h135v-60h-65zM315 700l40 -40v-280h-105v250h-175v70h240z" />
    <glyph glyph-name="guillemotleft" unicode="&#xab;" horiz-adv-x="525" 
d="M410 40l-150 225l150 225l75 -50l-115 -175l115 -175zM190 40l-150 225l150 225l75 -50l-115 -175l115 -175z" />
    <glyph glyph-name="logicalnot" unicode="&#xac;" horiz-adv-x="570" 
d="M430 310h-390v100h490v-220h-100v120z" />
    <glyph glyph-name="uni00AD" unicode="&#xad;" horiz-adv-x="410" 
d="M50 265v105h310v-105h-310v0z" />
    <glyph glyph-name="registered" unicode="&#xae;" horiz-adv-x="860" 
d="M260 150v390h125v-390h-125zM605 365l-35 -35h-140v70h50v70h-50v70h140l35 -35v-140zM520 150l-90 130h125l90 -130h-125zM125 0l-45 45v270h85v-235h240v-80h-280zM455 0v80h240v235h85v-270l-45 -45h-280zM735 700l45 -45v-270h-85v235h-240v80h280zM405 700v-80h-240
v-235h-85v270l45 45h280z" />
    <glyph glyph-name="macron" unicode="&#xaf;" horiz-adv-x="340" 
d="M30 700h280v-80h-280v80z" />
    <glyph glyph-name="degree" unicode="&#xb0;" horiz-adv-x="415" 
d="M235 640h-55v-120h-120v140l40 40h215l40 -40v-140h-120v120zM235 460h120v-140l-40 -40h-215l-40 40v140h120v-120h55v120z" />
    <glyph glyph-name="plusminus" unicode="&#xb1;" horiz-adv-x="530" 
d="M320 460h160v-100h-160v-160h-110v160h-160v100h160v160h110v-160zM480 140h-430v-100h430v100z" />
    <glyph glyph-name="twosuperior" unicode="&#xb2;" horiz-adv-x="365" 
d="M210 555v65h-60v-50h-95v100l30 30h205l30 -30v-150l-135 -110h-140zM45 370h275v-90h-275v90z" />
    <glyph glyph-name="threesuperior" unicode="&#xb3;" horiz-adv-x="385" 
d="M45 700h295v-70l-160 -105v-55h-130v55l155 105h-160v70zM80 280l-35 35v75h95v-30h85v150h80l35 -35v-160l-35 -35h-225z" />
    <glyph glyph-name="acute" unicode="&#xb4;" horiz-adv-x="265" 
d="M235 700l-140 -170h-65l55 170h150z" />
    <glyph glyph-name="mu" unicode="&#xb5;" horiz-adv-x="640" 
d="M430 500h150v-500h-150v100l-80 -80h-40l-40 60v105l40 -35h40l80 55v295zM220 -200v700h-160v-700h160z" />
    <glyph glyph-name="paragraph" unicode="&#xb6;" horiz-adv-x="470" 
d="M285 700v-900h-70v500h-110l-45 45v310l45 45h180zM335 700v-900h70v900h-70z" />
    <glyph glyph-name="periodcentered" unicode="&#xb7;" horiz-adv-x="215" 
d="M175 280h-135v140h135v-140z" />
    <glyph glyph-name="cedilla" unicode="&#xb8;" horiz-adv-x="260" 
d="M195 -70l35 -35v-90l-35 -35h-165v60h110v40h-80v60l55 70h65l-55 -70h70z" />
    <glyph glyph-name="onesuperior" unicode="&#xb9;" horiz-adv-x="265" 
d="M95 280v340h-60v80h180v-420h-120z" />
    <glyph glyph-name="ordmasculine" unicode="&#xba;" horiz-adv-x="395" 
d="M245 380v250h-45v70h120l30 -30v-260l-30 -30h-75zM150 700v-250h45v-70h-120l-30 30v260l30 30h75z" />
    <glyph glyph-name="guillemotright" unicode="&#xbb;" horiz-adv-x="525" 
d="M40 90l115 175l-115 175l75 50l150 -225l-150 -225zM260 90l115 175l-115 175l75 50l150 -225l-150 -225z" />
    <glyph glyph-name="onequarter" unicode="&#xbc;" horiz-adv-x="855" 
d="M810 0h-120v280h120v-280zM650 110h-180l120 310h115l-85 -220h30v-90zM530 700l-170 -700h-130l170 700h130zM90 280v340h-60v80h180v-420h-120z" />
    <glyph glyph-name="onehalf" unicode="&#xbd;" horiz-adv-x="840" 
d="M530 700l-170 -700h-130l170 700h130zM90 280v340h-60v80h180v-420h-120zM685 275v65h-60v-50h-95v100l30 30h205l30 -30v-150l-135 -110h-140zM520 90h275v-90h-275v90z" />
    <glyph glyph-name="threequarters" unicode="&#xbe;" horiz-adv-x="950" 
d="M625 700l-170 -700h-130l170 700h130zM45 700h295v-70l-160 -105v-55h-130v55l155 105h-160v70zM80 280l-35 35v75h95v-30h85v150h80l35 -35v-160l-35 -35h-225zM745 110h-180l120 310h115l-85 -220h30v-90zM905 0h-120v280h120v-280z" />
    <glyph glyph-name="questiondown" unicode="&#xbf;" horiz-adv-x="465" 
d="M350 360h-135v140h135v-140zM325 -10h140v-145l-45 -45h-155v80h60v110zM50 -154v234l180 210h100l-115 -245v-245h-120z" />
    <glyph glyph-name="Agrave" unicode="&#xc0;" horiz-adv-x="650" 
d="M255 385h95v-110h-95v-275h-185v655l45 45h140v-315zM580 655l-45 45h-230v-110h90v-590h185v655zM315 930l55 -170h-65l-140 170h150z" />
    <glyph glyph-name="Aacute" unicode="&#xc1;" horiz-adv-x="650" 
d="M255 385h95v-110h-95v-275h-185v655l45 45h140v-315zM580 655l-45 45h-230v-110h90v-590h185v655zM500 930l-140 -170h-65l55 170h150z" />
    <glyph glyph-name="Acircumflex" unicode="&#xc2;" horiz-adv-x="650" 
d="M255 385h95v-110h-95v-275h-185v655l45 45h140v-315zM580 655l-45 45h-230v-110h90v-590h185v655zM380 920l140 -150h-130l-65 75l-65 -75h-130l140 150h110z" />
    <glyph glyph-name="Atilde" unicode="&#xc3;" horiz-adv-x="650" 
d="M255 385h95v-110h-95v-275h-185v655l45 45h140v-315zM580 655l-45 45h-230v-110h90v-590h185v655zM430 920h85v-80l-65 -70h-90l-95 65h-20l-20 -20v-45h-85v80l65 70h90l95 -65h20l20 20v45z" />
    <glyph glyph-name="Adieresis" unicode="&#xc4;" horiz-adv-x="650" 
d="M255 385h95v-110h-95v-275h-185v655l45 45h140v-315zM580 655l-45 45h-230v-110h90v-590h185v655zM280 780h-115v105h115v-105zM370 885h115v-105h-115v105z" />
    <glyph glyph-name="Aring" unicode="&#xc5;" horiz-adv-x="650" 
d="M255 385h95v-110h-95v-275h-185v655l45 45h140v-315zM580 655l-45 45h-230v-110h90v-590h185v655zM415 950v-170h-180v170h90v-60h-30v-50h60v110h60z" />
    <glyph glyph-name="AE" unicode="&#xc6;" horiz-adv-x="885" 
d="M580 0h-185v590h-90v110h275v-700zM255 400h95v-90h-95v-310h-185v655l45 45h140v-300zM630 0v110h120v55h85v-165h-205zM835 545h-85v45h-120v110h205v-155zM630 400h180v-90h-180v90z" />
    <glyph glyph-name="Ccedilla" unicode="&#xc7;" horiz-adv-x="520" 
d="M345 -70l35 -35v-90l-35 -35h-165v60h110v40h-80v60l55 70h-150l-45 45v610l45 45h355v-180h-90v70h-125v-480h125v90h90v-200h-140l-55 -70h70z" />
    <glyph glyph-name="Egrave" unicode="&#xc8;" 
d="M490 545h-85v45h-150v-480h150v55h85v-165h-420v700h420v-155zM310 410h150v-80h-150v80zM275 930l55 -170h-65l-140 170h150z" />
    <glyph glyph-name="Eacute" unicode="&#xc9;" 
d="M490 545h-85v45h-150v-480h150v55h85v-165h-420v700h420v-155zM310 410h150v-80h-150v80zM445 930l-140 -170h-65l55 170h150z" />
    <glyph glyph-name="Ecircumflex" unicode="&#xca;" 
d="M490 545h-85v45h-150v-480h150v55h85v-165h-420v700h420v-155zM310 410h150v-80h-150v80zM330 920l140 -150h-130l-65 75l-65 -75h-130l140 150h110z" />
    <glyph glyph-name="Edieresis" unicode="&#xcb;" 
d="M490 545h-85v45h-150v-480h150v55h85v-165h-420v700h420v-155zM310 410h150v-80h-150v80zM225 790h-115v105h115v-105zM315 895h115v-105h-115v105z" />
    <glyph glyph-name="Igrave" unicode="&#xcc;" horiz-adv-x="325" 
d="M255 700v-700h-185v700h185zM141 930l55 -170h-65l-140 170h150z" />
    <glyph glyph-name="Iacute" unicode="&#xcd;" horiz-adv-x="325" 
d="M255 700v-700h-185v700h185zM330 930l-140 -170h-65l55 170h150z" />
    <glyph glyph-name="Icircumflex" unicode="&#xce;" horiz-adv-x="330" 
d="M257 700v-700h-185v700h185zM221 920l140 -150h-130l-65 75l-65 -75h-130l140 150h110z" />
    <glyph glyph-name="Idieresis" unicode="&#xcf;" horiz-adv-x="325" 
d="M255 700v-700h-185v700h185zM121 780h-115v105h115v-105zM211 885h115v-105h-115v105z" />
    <glyph glyph-name="Eth" unicode="&#xd0;" horiz-adv-x="690" 
d="M620 625v-550l-75 -75h-220v110h110v480h-110v110h220zM275 700v-300h90v-90h-90v-310h-185v310h-45v90h45v300h185z" />
    <glyph glyph-name="Ntilde" unicode="&#xd1;" horiz-adv-x="765" 
d="M275 650l215 -310v-290l-215 310v290zM70 700h155v-700h-155v700zM695 700v-700h-155v700h155zM485 920h85v-80l-65 -70h-90l-95 65h-20l-20 -20v-45h-85v80l65 70h90l95 -65h20l20 20v45z" />
    <glyph glyph-name="Ograve" unicode="&#xd2;" horiz-adv-x="660" 
d="M70 45v610l45 45h140v-590h100v-110h-240zM405 0h140l45 45v610l-45 45h-240v-110h100v-590zM315 930l55 -170h-65l-140 170h150z" />
    <glyph glyph-name="Oacute" unicode="&#xd3;" horiz-adv-x="660" 
d="M70 45v610l45 45h140v-590h100v-110h-240zM405 0h140l45 45v610l-45 45h-240v-110h100v-590zM510 930l-140 -170h-65l55 170h150z" />
    <glyph glyph-name="Ocircumflex" unicode="&#xd4;" horiz-adv-x="660" 
d="M70 45v610l45 45h140v-590h100v-110h-240zM405 0h140l45 45v610l-45 45h-240v-110h100v-590zM385 920l140 -150h-130l-65 75l-65 -75h-130l140 150h110z" />
    <glyph glyph-name="Otilde" unicode="&#xd5;" horiz-adv-x="660" 
d="M70 45v610l45 45h140v-590h100v-110h-240zM405 0h140l45 45v610l-45 45h-240v-110h100v-590zM430 930h85v-80l-65 -70h-90l-95 65h-20l-20 -20v-45h-85v80l65 70h90l95 -65h20l20 20v45z" />
    <glyph glyph-name="Odieresis" unicode="&#xd6;" horiz-adv-x="660" 
d="M70 45v610l45 45h140v-590h100v-110h-240zM405 0h140l45 45v610l-45 45h-240v-110h100v-590zM285 780h-115v105h115v-105zM375 885h115v-105h-115v105z" />
    <glyph glyph-name="multiply" unicode="&#xd7;" horiz-adv-x="490" 
d="M440 205l-70 -70l-125 125l-125 -125l-70 70l125 125l-125 125l70 70l125 -125l125 125l70 -70l-125 -125z" />
    <glyph glyph-name="Oslash" unicode="&#xd8;" horiz-adv-x="660" 
d="M165 0h-120l450 700h120zM255 590h110l70 110h-320l-45 -45v-525l185 285v175zM590 570l-185 -285v-175h-110l-70 -110h320l45 45v525z" />
    <glyph glyph-name="Ugrave" unicode="&#xd9;" horiz-adv-x="670" 
d="M70 45v655h185v-590h110v-110h-250zM415 0v700h185v-655l-45 -45h-140zM315 930l55 -170h-65l-140 170h150z" />
    <glyph glyph-name="Uacute" unicode="&#xda;" horiz-adv-x="670" 
d="M70 45v655h185v-590h110v-110h-250zM415 0v700h185v-655l-45 -45h-140zM495 930l-140 -170h-65l55 170h150z" />
    <glyph glyph-name="Ucircumflex" unicode="&#xdb;" horiz-adv-x="670" 
d="M70 45v655h185v-590h110v-110h-250zM415 0v700h185v-655l-45 -45h-140zM390 930l140 -150h-130l-65 75l-65 -75h-130l140 150h110z" />
    <glyph glyph-name="Udieresis" unicode="&#xdc;" horiz-adv-x="670" 
d="M70 45v655h185v-590h110v-110h-250zM415 0v700h185v-655l-45 -45h-140zM290 780h-115v105h115v-105zM380 885h115v-105h-115v105z" />
    <glyph glyph-name="Yacute" unicode="&#xdd;" horiz-adv-x="555" 
d="M200 280l-200 420h205l180 -420v-280h-185v280zM555 700h-160l-60 -200l70 -150zM470 930l-140 -170h-65l55 170h150z" />
    <glyph glyph-name="Thorn" unicode="&#xde;" horiz-adv-x="620" 
d="M70 700h185v-700h-185v700zM385 510h-80v100h210l45 -45v-405l-45 -45h-210v100h80v295z" />
    <glyph glyph-name="germandbls" unicode="&#xdf;" horiz-adv-x="580" 
d="M340 700h105l45 -45v-185l-55 -55l95 -95v-240l-80 -80h-145l-45 45v80h50l35 -35h25v250l-30 30h-40v90h40v240zM290 700h-120l-110 -140v-560h150v560l40 70h40v70z" />
    <glyph glyph-name="agrave" unicode="&#xe0;" horiz-adv-x="560" 
d="M100 0l-45 45v225l45 45h185v-75h-90v-150h90v-90h-185zM335 0v430h-230v70h350l45 -45v-455h-165zM275 740l55 -170h-65l-140 170h150z" />
    <glyph glyph-name="aacute" unicode="&#xe1;" horiz-adv-x="560" 
d="M100 0l-45 45v225l45 45h185v-75h-90v-150h90v-90h-185zM335 0v430h-230v70h350l45 -45v-455h-165zM455 740l-140 -170h-65l55 170h150z" />
    <glyph glyph-name="acircumflex" unicode="&#xe2;" horiz-adv-x="560" 
d="M100 0l-45 45v225l45 45h185v-75h-90v-150h90v-90h-185zM335 0v430h-230v70h350l45 -45v-455h-165zM345 730l140 -150h-130l-65 75l-65 -75h-130l140 150h110z" />
    <glyph glyph-name="atilde" unicode="&#xe3;" horiz-adv-x="560" 
d="M100 0l-45 45v225l45 45h185v-75h-90v-150h90v-90h-185zM335 0v430h-230v70h350l45 -45v-455h-165zM395 730h85v-80l-65 -70h-90l-95 65h-20l-20 -20v-45h-85v80l65 70h90l95 -65h20l20 20v45z" />
    <glyph glyph-name="adieresis" unicode="&#xe4;" horiz-adv-x="560" 
d="M100 0l-45 45v225l45 45h185v-75h-90v-150h90v-90h-185zM335 0v430h-230v70h350l45 -45v-455h-165zM245 591h-115v105h115v-105zM335 696h115v-105h-115v105z" />
    <glyph glyph-name="aring" unicode="&#xe5;" horiz-adv-x="560" 
d="M100 0l-45 45v225l45 45h185v-75h-90v-150h90v-90h-185zM335 0v430h-230v70h350l45 -45v-455h-165zM380 760v-170h-180v170h90v-60h-30v-50h60v110h60z" />
    <glyph glyph-name="ae" unicode="&#xe6;" horiz-adv-x="800" 
d="M335 0v430h-230v70h460v-80h-65v-330h230v-90h-395zM100 0l-45 45v225l45 45h185v-75h-90v-150h90v-90h-185zM700 500l45 -45v-210l-45 -45h-145v90h60v210h85z" />
    <glyph glyph-name="ccedilla" unicode="&#xe7;" horiz-adv-x="435" 
d="M305 -70l35 -35v-90l-35 -35h-165v60h110v40h-80v60l55 70h-120l-45 45v410l45 45h285v-80h-165v-330h180v-90h-115l-55 -70h70z" />
    <glyph glyph-name="egrave" unicode="&#xe8;" horiz-adv-x="535" 
d="M435 500l45 -45v-240l-45 -45h-155v90h70v240h85zM60 66l65 -66h350v90h-250v330h75v80h-175l-65 -65v-369zM255 740l55 -170h-65l-140 170h150z" />
    <glyph glyph-name="eacute" unicode="&#xe9;" horiz-adv-x="535" 
d="M435 500l45 -45v-240l-45 -45h-155v90h70v240h85zM60 66l65 -66h350v90h-250v330h75v80h-175l-65 -65v-369zM435 740l-140 -170h-65l55 170h150z" />
    <glyph glyph-name="ecircumflex" unicode="&#xea;" horiz-adv-x="535" 
d="M435 500l45 -45v-240l-45 -45h-155v90h70v240h85zM60 66l65 -66h350v90h-250v330h75v80h-175l-65 -65v-369zM320 730l140 -150h-130l-65 75l-65 -75h-130l140 150h110z" />
    <glyph glyph-name="edieresis" unicode="&#xeb;" horiz-adv-x="535" 
d="M435 500l45 -45v-240l-45 -45h-155v90h70v240h85zM60 66l65 -66h350v90h-250v330h75v80h-175l-65 -65v-369zM225 591h-115v105h115v-105zM315 696h115v-105h-115v105z" />
    <glyph glyph-name="igrave" unicode="&#xec;" horiz-adv-x="285" 
d="M225 0h-165v500h165v-500zM126 740l55 -170h-65l-140 170h150z" />
    <glyph glyph-name="iacute" unicode="&#xed;" horiz-adv-x="284" 
d="M225 0h-165v500h165v-500zM309 740l-140 -170h-65l55 170h150z" />
    <glyph glyph-name="icircumflex" unicode="&#xee;" horiz-adv-x="285" 
d="M225 0h-165v500h165v-500zM201 730l140 -150h-130l-65 75l-65 -75h-130l140 150h110z" />
    <glyph glyph-name="idieresis" unicode="&#xef;" horiz-adv-x="285" 
d="M225 0h-165v500h165v-500zM101 591h-115v105h115v-105zM191 696h115v-105h-115v105z" />
    <glyph glyph-name="eth" unicode="&#xf0;" horiz-adv-x="575" 
d="M135 490l-30 70l115 50l-55 90h80l60 -60l115 50l30 -70l-90 -40l155 -155v-380l-45 -45h-120v365l-100 175zM300 0v90h-75v275h75l-45 85h-150l-45 -45v-360l45 -45h195z" />
    <glyph glyph-name="ntilde" unicode="&#xf1;" horiz-adv-x="590" 
d="M375 400h-100v55l45 45h165l45 -45v-455h-155v400zM60 0h165v500h-165v-500zM390 730h85v-80l-65 -70h-90l-95 65h-20l-20 -20v-45h-85v80l65 70h90l95 -65h20l20 20v45z" />
    <glyph glyph-name="ograve" unicode="&#xf2;" horiz-adv-x="575" 
d="M105 0l-45 45v410l45 45h120v-410h75v-90h-195zM470 500l45 -45v-410l-45 -45h-120v410h-75v90h195zM285 740l55 -170h-65l-140 170h150z" />
    <glyph glyph-name="oacute" unicode="&#xf3;" horiz-adv-x="575" 
d="M105 0l-45 45v410l45 45h120v-410h75v-90h-195zM470 500l45 -45v-410l-45 -45h-120v410h-75v90h195zM470 740l-140 -170h-65l55 170h150z" />
    <glyph glyph-name="ocircumflex" unicode="&#xf4;" horiz-adv-x="575" 
d="M105 0l-45 45v410l45 45h120v-410h75v-90h-195zM470 500l45 -45v-410l-45 -45h-120v410h-75v90h195zM340 730l140 -150h-130l-65 75l-65 -75h-130l140 150h110z" />
    <glyph glyph-name="otilde" unicode="&#xf5;" horiz-adv-x="575" 
d="M105 0l-45 45v410l45 45h120v-410h75v-90h-195zM470 500l45 -45v-410l-45 -45h-120v410h-75v90h195zM385 730h85v-80l-65 -70h-90l-95 65h-20l-20 -20v-45h-85v80l65 70h90l95 -65h20l20 20v45z" />
    <glyph glyph-name="odieresis" unicode="&#xf6;" horiz-adv-x="575" 
d="M105 0l-45 45v410l45 45h120v-410h75v-90h-195zM470 500l45 -45v-410l-45 -45h-120v410h-75v90h195zM240 591h-115v105h115v-105zM330 696h115v-105h-115v105z" />
    <glyph glyph-name="divide" unicode="&#xf7;" horiz-adv-x="525" 
d="M315 105v105h-105v-105h105zM210 550h105v-105h-105v105zM50 375h425v-95h-425v95z" />
    <glyph glyph-name="oslash" unicode="&#xf8;" horiz-adv-x="570" 
d="M330 500l-55 -80h-60v-95l-155 -235v365l45 45h225zM240 0l55 80h60v95l155 235v-365l-45 -45h-225zM60 0l330 500h120l-330 -500h-120z" />
    <glyph glyph-name="ugrave" unicode="&#xf9;" horiz-adv-x="590" 
d="M215 100h100v-55l-45 -45h-165l-45 45v455h155v-400zM530 500h-165v-500h165v500zM275 740l55 -170h-65l-140 170h150z" />
    <glyph glyph-name="uacute" unicode="&#xfa;" horiz-adv-x="590" 
d="M215 100h100v-55l-45 -45h-165l-45 45v455h155v-400zM530 500h-165v-500h165v500zM455 740l-140 -170h-65l55 170h150z" />
    <glyph glyph-name="ucircumflex" unicode="&#xfb;" horiz-adv-x="590" 
d="M215 100h100v-55l-45 -45h-165l-45 45v455h155v-400zM530 500h-165v-500h165v500zM350 730l140 -150h-130l-65 75l-65 -75h-130l140 150h110z" />
    <glyph glyph-name="udieresis" unicode="&#xfc;" horiz-adv-x="590" 
d="M215 100h100v-55l-45 -45h-165l-45 45v455h155v-400zM530 500h-165v-500h165v500zM250 581h-115v105h115v-105zM340 686h115v-105h-115v105z" />
    <glyph glyph-name="yacute" unicode="&#xfd;" horiz-adv-x="520" 
d="M370 500h140l-240 -700h-140zM170 50l70 210l-50 240h-180zM435 740l-140 -170h-65l55 170h150z" />
    <glyph glyph-name="thorn" unicode="&#xfe;" horiz-adv-x="570" 
d="M360 80v340h-90v80h195l45 -45v-410l-45 -45h-195v80h90zM60 700h165v-900h-165v900z" />
    <glyph glyph-name="ydieresis" unicode="&#xff;" horiz-adv-x="520" 
d="M370 500h140l-240 -700h-140zM170 50l70 210l-50 240h-180zM215 591h-115v105h115v-105zM305 696h115v-105h-115v105z" />
    <glyph glyph-name="Amacron" unicode="&#x100;" horiz-adv-x="650" 
d="M255 385h95v-110h-95v-275h-185v655l45 45h140v-315zM580 655l-45 45h-230v-110h90v-590h185v655zM185 860h280v-80h-280v80z" />
    <glyph glyph-name="amacron" unicode="&#x101;" horiz-adv-x="560" 
d="M100 0l-45 45v225l45 45h185v-75h-90v-150h90v-90h-185zM335 0v430h-230v70h350l45 -45v-455h-165zM150 681h280v-80h-280v80z" />
    <glyph glyph-name="Abreve" unicode="&#x102;" horiz-adv-x="650" 
d="M255 385h95v-110h-95v-275h-185v655l45 45h140v-315zM580 655l-45 45h-230v-110h90v-590h185v655zM500 900v-85l-35 -35h-280l-35 35v85h110v-60h130v60h110z" />
    <glyph glyph-name="abreve" unicode="&#x103;" horiz-adv-x="560" 
d="M100 0l-45 45v225l45 45h185v-75h-90v-150h90v-90h-185zM335 0v430h-230v70h350l45 -45v-455h-165zM460 710v-85l-35 -35h-280l-35 35v85h110v-60h130v60h110z" />
    <glyph glyph-name="Aogonek" unicode="&#x104;" horiz-adv-x="650" 
d="M515 -140h100v-15l-45 -50h-110l-30 30v85l110 90h-145v590h-90v110h230l45 -45v-655l-65 -100v-40zM255 385h95v-110h-95v-275h-185v655l45 45h140v-315z" />
    <glyph glyph-name="aogonek" unicode="&#x105;" horiz-adv-x="560" 
d="M435 -140h100v-15l-45 -50h-110l-30 30v85l110 90h-125v430h-230v70h350l45 -45v-455l-65 -100v-40zM100 0l-45 45v225l45 45h185v-75h-90v-150h90v-90h-185z" />
    <glyph glyph-name="Cacute" unicode="&#x106;" horiz-adv-x="520" 
d="M470 700v-180h-90v70h-125v-480h125v90h90v-200h-355l-45 45v610l45 45h355zM435 930l-140 -170h-65l55 170h150z" />
    <glyph glyph-name="cacute" unicode="&#x107;" horiz-adv-x="435" 
d="M105 0l-45 45v410l45 45h285v-80h-165v-330h180v-90h-300zM405 740l-140 -170h-65l55 170h150z" />
    <glyph glyph-name="Ccircumflex" unicode="&#x108;" horiz-adv-x="520" 
d="M470 700v-180h-90v70h-125v-480h125v90h90v-200h-355l-45 45v610l45 45h355zM315 920l140 -150h-130l-65 75l-65 -75h-130l140 150h110z" />
    <glyph glyph-name="ccircumflex" unicode="&#x109;" horiz-adv-x="435" 
d="M105 0l-45 45v410l45 45h285v-80h-165v-330h180v-90h-300zM290 730l140 -150h-130l-65 75l-65 -75h-130l140 150h110z" />
    <glyph glyph-name="Ccaron" unicode="&#x10c;" horiz-adv-x="520" 
d="M470 700v-180h-90v70h-125v-480h125v90h90v-200h-355l-45 45v610l45 45h355zM215 770l-140 150h130l65 -75l65 75h130l-140 -150h-110z" />
    <glyph glyph-name="ccaron" unicode="&#x10d;" horiz-adv-x="435" 
d="M105 0l-45 45v410l45 45h285v-80h-165v-330h180v-90h-300zM170 580l-140 150h130l65 -75l65 75h130l-140 -150h-110z" />
    <glyph glyph-name="Dcaron" unicode="&#x10e;" horiz-adv-x="670" 
d="M600 625v-550l-75 -75h-220v110h110v480h-110v110h220zM70 0h185v700h-185v-700zM280 770l-140 150h130l65 -75l65 75h130l-140 -150h-110z" />
    <glyph glyph-name="dcaron" unicode="&#x10f;" horiz-adv-x="695" 
d="M260 500h95v200h165v-700h-165v420h-95v80zM105 500l-45 -45v-410l45 -45h195v90h-90v410h-105zM645 445v115h-65v140h135v-255h-70z" />
    <glyph glyph-name="Dcroat" unicode="&#x110;" horiz-adv-x="690" 
d="M620 625v-550l-75 -75h-220v110h110v480h-110v110h220zM275 700v-300h90v-90h-90v-310h-185v310h-45v90h45v300h185z" />
    <glyph glyph-name="dcroat" unicode="&#x111;" horiz-adv-x="585" 
d="M165 590h185v110h165v-110h50v-70h-50v-520h-165v340h-95v80h95v100h-185v70zM205 90h90v-90h-195l-45 45v330l45 45h105v-330z" />
    <glyph glyph-name="Emacron" unicode="&#x112;" 
d="M490 545h-85v45h-150v-480h150v55h85v-165h-420v700h420v-155zM310 410h150v-80h-150v80zM140 870h280v-80h-280v80z" />
    <glyph glyph-name="emacron" unicode="&#x113;" horiz-adv-x="535" 
d="M435 500l45 -45v-240l-45 -45h-155v90h70v240h85zM60 66l65 -66h350v90h-250v330h75v80h-175l-65 -65v-369zM130 681h280v-80h-280v80z" />
    <glyph glyph-name="Edotaccent" unicode="&#x116;" 
d="M490 545h-85v45h-150v-480h150v55h85v-165h-420v700h420v-155zM310 410h150v-80h-150v80zM365 855l-95 -95l-95 95l95 95z" />
    <glyph glyph-name="edotaccent" unicode="&#x117;" horiz-adv-x="535" 
d="M435 500l45 -45v-240l-45 -45h-155v90h70v240h85zM60 66l65 -66h350v90h-250v330h75v80h-175l-65 -65v-369zM365 665l-95 -95l-95 95l95 95z" />
    <glyph glyph-name="Eogonek" unicode="&#x118;" 
d="M265 -140h100v-15l-45 -50h-110l-30 30v85l110 90h-220v700h420v-155h-85v45h-150v-480h150v55h85v-165h-160l-65 -100v-40zM310 410h150v-80h-150v80z" />
    <glyph glyph-name="eogonek" unicode="&#x119;" 
d="M410 -140h100v-15l-45 -50h-110l-30 30v85l110 90h-310l-65 66v369l65 65h175v-80h-75v-330h250v-90l-65 -100v-40zM435 500l45 -45v-240l-45 -45h-155v90h70v240h85z" />
    <glyph glyph-name="Ecaron" unicode="&#x11a;" 
d="M490 545h-85v45h-150v-480h150v55h85v-165h-420v700h420v-155zM310 410h150v-80h-150v80zM215 770l-140 150h130l65 -75l65 75h130l-140 -150h-110z" />
    <glyph glyph-name="ecaron" unicode="&#x11b;" horiz-adv-x="535" 
d="M435 500l45 -45v-240l-45 -45h-155v90h70v240h85zM60 66l65 -66h350v90h-250v330h75v80h-175l-65 -65v-369zM215 580l-140 150h130l65 -75l65 75h130l-140 -150h-110z" />
    <glyph glyph-name="Gbreve" unicode="&#x11e;" horiz-adv-x="625" 
d="M115 700h140v-700h-140l-45 45v610zM595 295h-255v-55h35v-130h-70v-110h210l45 45v195h35v55zM385 540h175v115l-45 45h-209v-95h79v-65zM490 900v-85l-35 -35h-280l-35 35v85h110v-60h130v60h110z" />
    <glyph glyph-name="gbreve" unicode="&#x11f;" horiz-adv-x="570" 
d="M75 -200v90h270v610h120l45 -45v-590l-65 -65h-370zM300 100v-80h-195l-45 45v390l45 45h195v-80h-90v-320h90zM460 710v-85l-35 -35h-280l-35 35v85h110v-60h130v60h110z" />
    <glyph glyph-name="Gcommaaccent" unicode="&#x122;" horiz-adv-x="625" 
d="M115 700h140v-700h-140l-45 45v610zM595 295h-255v-55h35v-130h-70v-110h210l45 45v195h35v55zM385 540h175v115l-45 45h-209v-95h79v-65zM330 -345v115h-65v140h135v-255h-70z" />
    <glyph glyph-name="gcommaaccent" unicode="&#x123;" horiz-adv-x="570" 
d="M285 845v-115h65v-140h-135v255h70zM75 -200v90h270v610h120l45 -45v-590l-65 -65h-370zM300 100v-80h-195l-45 45v390l45 45h195v-80h-90v-320h90z" />
    <glyph glyph-name="Imacron" unicode="&#x12a;" horiz-adv-x="325" 
d="M255 700v-700h-185v700h185zM21 870h280v-80h-280v80z" />
    <glyph glyph-name="imacron" unicode="&#x12b;" horiz-adv-x="285" 
d="M225 0h-165v500h165v-500zM1 681h280v-80h-280v80z" />
    <glyph glyph-name="Iogonek" unicode="&#x12e;" horiz-adv-x="330" 
d="M190 -140h100v-15l-45 -50h-110l-30 30v85l110 90h-145v700h185v-700l-65 -100v-40z" />
    <glyph glyph-name="iogonek" unicode="&#x12f;" horiz-adv-x="290" 
d="M160 -140h100v-15l-45 -50h-110l-30 30v85l110 90h-125v500h165v-500l-65 -100v-40zM60 700h165v-130h-165v130z" />
    <glyph glyph-name="Idotaccent" unicode="&#x130;" horiz-adv-x="325" 
d="M255 700v-700h-185v700h185zM260 845l-95 -95l-95 95l95 95z" />
    <glyph glyph-name="dotlessi" unicode="&#x131;" horiz-adv-x="285" 
d="M225 0h-165v500h165v-500z" />
    <glyph glyph-name="Kcommaaccent" unicode="&#x136;" horiz-adv-x="625" 
d="M625 0h-210l-110 250v185l95 265h170l-130 -325zM70 700v-700h185v700h-185zM330 -345v115h-65v140h135v-255h-70z" />
    <glyph glyph-name="kcommaaccent" unicode="&#x137;" 
d="M375 0l-100 200v135l85 165h140l-110 -210l150 -290h-165zM60 700h165v-700h-165v700zM295 -345v115h-65v140h135v-255h-70z" />
    <glyph glyph-name="Lacute" unicode="&#x139;" horiz-adv-x="480" 
d="M450 0h-380v700h185v-590h110v65h85v-175zM325 940l-140 -170h-65l55 170h150z" />
    <glyph glyph-name="lacute" unicode="&#x13a;" horiz-adv-x="330" 
d="M225 700v-605h85v-95h-250v700h165zM315 930l-140 -170h-65l55 170h150z" />
    <glyph glyph-name="Lcommaaccent" unicode="&#x13b;" horiz-adv-x="480" 
d="M450 0h-380v700h185v-590h110v65h85v-175zM250 -345v115h-65v140h135v-255h-70z" />
    <glyph glyph-name="lcommaaccent" unicode="&#x13c;" horiz-adv-x="330" 
d="M225 700v-605h85v-95h-250v700h165zM160 -345v115h-65v140h135v-255h-70z" />
    <glyph glyph-name="Lcaron" unicode="&#x13d;" horiz-adv-x="480" 
d="M450 0h-380v700h185v-590h110v65h85v-175zM380 445v115h-65v140h135v-255h-70z" />
    <glyph glyph-name="lcaron" unicode="&#x13e;" horiz-adv-x="405" 
d="M225 700v-605h85v-95h-250v700h165zM355 445v115h-65v140h135v-255h-70z" />
    <glyph glyph-name="Lslash" unicode="&#x141;" horiz-adv-x="500" 
d="M275 515l-185 -105v290h185v-185zM470 175h-85v-65h-110v185l-185 -105v-190h380v175zM385 520l-375 -215v-100l375 215v100z" />
    <glyph glyph-name="lslash" unicode="&#x142;" horiz-adv-x="373" 
d="M258 500l-165 -95v295h165v-200zM343 0v95h-85v180l-165 -95v-180h250zM343 485l-318 -180v-105l318 180v105z" />
    <glyph glyph-name="Nacute" unicode="&#x143;" horiz-adv-x="765" 
d="M275 650l215 -310v-290l-215 310v290zM70 700h155v-700h-155v700zM695 700v-700h-155v700h155zM555 930l-140 -170h-65l55 170h150z" />
    <glyph glyph-name="nacute" unicode="&#x144;" horiz-adv-x="590" 
d="M375 400h-100v55l45 45h165l45 -45v-455h-155v400zM60 0h165v500h-165v-500zM455 740l-140 -170h-65l55 170h150z" />
    <glyph glyph-name="Ncommaaccent" unicode="&#x145;" horiz-adv-x="765" 
d="M275 650l215 -310v-290l-215 310v290zM70 700h155v-700h-155v700zM695 700v-700h-155v700h155zM380 -345v115h-65v140h135v-255h-70z" />
    <glyph glyph-name="ncommaaccent" unicode="&#x146;" horiz-adv-x="590" 
d="M375 400h-100v55l45 45h165l45 -45v-455h-155v400zM60 0h165v500h-165v-500zM295 -345v115h-65v140h135v-255h-70z" />
    <glyph glyph-name="Ncaron" unicode="&#x147;" horiz-adv-x="765" 
d="M275 650l215 -310v-290l-215 310v290zM70 700h155v-700h-155v700zM695 700v-700h-155v700h155zM330 770l-140 150h130l65 -75l65 75h130l-140 -150h-110z" />
    <glyph glyph-name="ncaron" unicode="&#x148;" horiz-adv-x="590" 
d="M375 400h-100v55l45 45h165l45 -45v-455h-155v400zM60 0h165v500h-165v-500zM240 580l-140 150h130l65 -75l65 75h130l-140 -150h-110z" />
    <glyph glyph-name="Omacron" unicode="&#x14c;" horiz-adv-x="660" 
d="M70 45v610l45 45h140v-590h100v-110h-240zM405 0h140l45 45v610l-45 45h-240v-110h100v-590zM190 870h280v-80h-280v80z" />
    <glyph glyph-name="omacron" unicode="&#x14d;" horiz-adv-x="575" 
d="M105 0l-45 45v410l45 45h120v-410h75v-90h-195zM470 500l45 -45v-410l-45 -45h-120v410h-75v90h195zM150 681h280v-80h-280v80z" />
    <glyph glyph-name="Ohungarumlaut" unicode="&#x150;" horiz-adv-x="660" 
d="M70 45v610l45 45h140v-590h100v-110h-240zM405 0h140l45 45v610l-45 45h-240v-110h100v-590zM255 940h140l-140 -170h-55zM585 940l-140 -170h-55l55 170h140z" />
    <glyph glyph-name="ohungarumlaut" unicode="&#x151;" horiz-adv-x="575" 
d="M105 0l-45 45v410l45 45h120v-410h75v-90h-195zM470 500l45 -45v-410l-45 -45h-120v410h-75v90h195zM210 750h140l-140 -170h-55zM540 750l-140 -170h-55l55 170h140z" />
    <glyph glyph-name="OE" unicode="&#x152;" horiz-adv-x="895" 
d="M70 45v610l45 45h140v-590h100v-110h-240zM405 0h185v655l-45 45h-240v-110h100v-590zM845 0v165h-85v-55h-120v-110h205zM845 700h-205v-110h120v-45h85v155zM640 320h180v90h-180v-90z" />
    <glyph glyph-name="oe" unicode="&#x153;" horiz-adv-x="840" 
d="M360 410h-80v90h200l45 -45v-375h245v-80h-345l-65 95v315zM105 0l-45 45v410l45 45h121v-420h84l55 -80h-260zM740 500l45 -45v-245l-45 -45h-165v75h70v170h-70v90h165z" />
    <glyph glyph-name="Racute" unicode="&#x154;" horiz-adv-x="640" 
d="M640 0l-150 260h-180l125 -260h205zM255 0h-185v700h185v-700zM555 355v300l-45 45h-200v-110h60v-170h-60v-110h200zM475 930l-140 -170h-65l55 170h150z" />
    <glyph glyph-name="racute" unicode="&#x155;" horiz-adv-x="415" 
d="M325 500h80v-120h-130v70zM60 0h165v500h-165v-500zM405 740l-140 -170h-65l55 170h150z" />
    <glyph glyph-name="Rcommaaccent" unicode="&#x156;" horiz-adv-x="640" 
d="M640 0l-150 260h-180l125 -260h205zM255 0h-185v700h185v-700zM555 355v300l-45 45h-200v-110h60v-170h-60v-110h200zM325 -345v115h-65v140h135v-255h-70z" />
    <glyph glyph-name="rcommaaccent" unicode="&#x157;" horiz-adv-x="415" 
d="M325 500h80v-120h-130v70zM60 0h165v500h-165v-500zM145 -345v115h-65v140h135v-255h-70z" />
    <glyph glyph-name="Rcaron" unicode="&#x158;" horiz-adv-x="640" 
d="M640 0l-150 260h-180l125 -260h205zM255 0h-185v700h185v-700zM555 355v300l-45 45h-200v-110h60v-170h-60v-110h200zM260 770l-140 150h130l65 -75l65 75h130l-140 -150h-110z" />
    <glyph glyph-name="rcaron" unicode="&#x159;" horiz-adv-x="415" 
d="M325 500h80v-120h-130v70zM60 0h165v500h-165v-500zM180 580l-140 150h130l65 -75l65 75h130l-140 -150h-110z" />
    <glyph glyph-name="Sacute" unicode="&#x15a;" horiz-adv-x="550" 
d="M60 395v260v0l45 45h350v-150h-70v40h-140v-240h-140zM490 345v-300v0l-45 -45h-380v160h70v-50h170v280h140zM435 930l-140 -170h-65l55 170h150z" />
    <glyph glyph-name="sacute" unicode="&#x15b;" horiz-adv-x="460" 
d="M85 250l-35 35v180l35 35h285v-70h-165v-180h-120zM375 290l35 -35v-220l-35 -35h-315v80h195v210h120zM389 740l-140 -170h-65l55 170h150z" />
    <glyph glyph-name="Scedilla" unicode="&#x15e;" horiz-adv-x="550" 
d="M335 -70l35 -35v-90l-35 -35h-165v60h110v40h-80v60l55 70h-190v160h70v-50h170v280h140l45 -45v-300l-45 -45h-125l-55 -70h70zM60 395v260l45 45h350v-150h-70v40h-140v-240h-140z" />
    <glyph glyph-name="scedilla" unicode="&#x15f;" horiz-adv-x="460" 
d="M290 -70l35 -35v-90l-35 -35h-165v60h110v40h-80v60l55 70h-150v80h195v210h120l35 -35v-220l-35 -35h-100l-55 -70h70zM85 250l-35 35v180l35 35h285v-70h-165v-180h-120z" />
    <glyph glyph-name="Scaron" unicode="&#x160;" horiz-adv-x="550" 
d="M60 395v260v0l45 45h350v-150h-70v40h-140v-240h-140zM490 345v-300v0l-45 -45h-380v160h70v-50h170v280h140zM210 770l-140 150h130l65 -75l65 75h130l-140 -150h-110z" />
    <glyph glyph-name="scaron" unicode="&#x161;" horiz-adv-x="460" 
d="M85 250l-35 35v180l35 35h285v-70h-165v-180h-120zM375 290l35 -35v-220l-35 -35h-315v80h195v210h120zM166 570l-140 150h130l65 -75l65 75h130l-140 -150h-110z" />
    <glyph glyph-name="Tcommaaccent" unicode="&#x162;" horiz-adv-x="534" 
d="M20 700h494v-115h-494v115zM360 0v534h-185v-534h185zM264 -345v115h-65v140h135v-255h-70z" />
    <glyph glyph-name="tcommaaccent" unicode="&#x163;" horiz-adv-x="380" 
d="M100 420h-60v80h60v200h165v-200h65v-80h-65v-320h75v-100h-240v420zM220 -345v115h-65v140h135v-255h-70z" />
    <glyph glyph-name="Tcaron" unicode="&#x164;" horiz-adv-x="534" 
d="M20 700h494v-115h-494v115zM360 0v534h-185v-534h185zM212 770l-140 150h130l65 -75l65 75h130l-140 -150h-110z" />
    <glyph glyph-name="tcaron" unicode="&#x165;" horiz-adv-x="485" 
d="M100 420h-60v80h60v200h165v-200h65v-80h-65v-320h75v-100h-240v420zM435 445v115h-65v140h135v-255h-70z" />
    <glyph glyph-name="Umacron" unicode="&#x16a;" horiz-adv-x="670" 
d="M70 45v655h185v-590h110v-110h-250zM415 0v700h185v-655l-45 -45h-140zM195 870h280v-80h-280v80z" />
    <glyph glyph-name="umacron" unicode="&#x16b;" horiz-adv-x="590" 
d="M215 100h100v-55l-45 -45h-165l-45 45v455h155v-400zM530 500h-165v-500h165v500zM155 681h280v-80h-280v80z" />
    <glyph glyph-name="Uring" unicode="&#x16e;" horiz-adv-x="670" 
d="M70 45v655h185v-590h110v-110h-250zM415 0v700h185v-655l-45 -45h-140zM425 950v-170h-180v170h90v-60h-30v-50h60v110h60z" />
    <glyph glyph-name="uring" unicode="&#x16f;" horiz-adv-x="590" 
d="M215 100h100v-55l-45 -45h-165l-45 45v455h155v-400zM530 500h-165v-500h165v500zM385 760v-170h-180v170h90v-60h-30v-50h60v110h60z" />
    <glyph glyph-name="Uhungarumlaut" unicode="&#x170;" horiz-adv-x="670" 
d="M70 45v655h185v-590h110v-110h-250zM415 0v700h185v-655l-45 -45h-140zM245 940h140l-140 -170h-55zM575 940l-140 -170h-55l55 170h140z" />
    <glyph glyph-name="uhungarumlaut" unicode="&#x171;" horiz-adv-x="590" 
d="M215 100h100v-55l-45 -45h-165l-45 45v455h155v-400zM530 500h-165v-500h165v500zM215 750h140l-140 -170h-55zM545 750l-140 -170h-55l55 170h140z" />
    <glyph glyph-name="Uogonek" unicode="&#x172;" horiz-adv-x="670" 
d="M70 45v655h185v-590h110v-110l-65 -100v-40h100v-15l-45 -50h-110l-30 30v85l110 90h-210zM415 0v700h185v-655l-45 -45h-140z" />
    <glyph glyph-name="uogonek" unicode="&#x173;" horiz-adv-x="590" 
d="M465 -140h100v-15l-45 -50h-110l-30 30v85l110 90h-125v500h165v-500l-65 -100v-40zM215 100h100v-55l-45 -45h-165l-45 45v455h155v-400z" />
    <glyph glyph-name="Ydieresis" unicode="&#x178;" horiz-adv-x="555" 
d="M200 280l-200 420h205l180 -420v-280h-185v280zM555 700h-160l-60 -200l70 -150zM240 780h-115v105h115v-105zM330 885h115v-105h-115v105z" />
    <glyph glyph-name="Zacute" unicode="&#x179;" horiz-adv-x="575" 
d="M215 0h-195v20l330 680h195v-20zM290 700h-230v-125h170zM530 125h-195l-60 -125h255v125zM460 940l-140 -170h-65l55 170h150z" />
    <glyph glyph-name="zacute" unicode="&#x17a;" horiz-adv-x="480" 
d="M210 0h-190l235 500h190zM40 400h115l45 100h-160v-100zM450 100h-140l-45 -100h185v100zM395 740l-140 -170h-65l55 170h150z" />
    <glyph glyph-name="Zdotaccent" unicode="&#x17b;" horiz-adv-x="575" 
d="M215 0h-195v20l330 680h195v-20zM290 700h-230v-125h170zM530 125h-195l-60 -125h255v125zM385 855l-95 -95l-95 95l95 95z" />
    <glyph glyph-name="zdotaccent" unicode="&#x17c;" horiz-adv-x="480" 
d="M210 0h-190l235 500h190zM40 400h115l45 100h-160v-100zM450 100h-140l-45 -100h185v100zM335 665l-95 -95l-95 95l95 95z" />
    <glyph glyph-name="Zcaron" unicode="&#x17d;" horiz-adv-x="575" 
d="M215 0h-195v20l330 680h195v-20zM290 700h-230v-125h170zM530 125h-195l-60 -125h255v125zM240 770l-140 150h130l65 -75l65 75h130l-140 -150h-110z" />
    <glyph glyph-name="zcaron" unicode="&#x17e;" horiz-adv-x="480" 
d="M210 0h-190l235 500h190zM40 400h115l45 100h-160v-100zM450 100h-140l-45 -100h185v100zM185 580l-140 150h130l65 -75l65 75h130l-140 -150h-110z" />
    <glyph glyph-name="florin" unicode="&#x192;" horiz-adv-x="410" 
d="M380 380h-350v80h350v-80zM410 700v-80h-130v-110h-165v125l65 65h230zM280 330v-465l-65 -65h-205v80h105v450h165z" />
    <glyph glyph-name="Scommaaccent" unicode="&#x218;" horiz-adv-x="550" 
d="M60 395v260v0l45 45h350v-150h-70v40h-140v-240h-140zM490 345v-300v0l-45 -45h-380v160h70v-50h170v280h140zM285 -345v115h-65v140h135v-255h-70z" />
    <glyph glyph-name="scommaaccent" unicode="&#x219;" horiz-adv-x="460" 
d="M85 250l-35 35v180l35 35h285v-70h-165v-180h-120zM375 290l35 -35v-220l-35 -35h-315v80h195v210h120zM220 -345v115h-65v140h135v-255h-70z" />
    <glyph glyph-name="afii57929" unicode="&#x2bc;" horiz-adv-x="195" 
d="M95 445v115h-65v140h135v-255h-70z" />
    <glyph glyph-name="circumflex" unicode="&#x2c6;" horiz-adv-x="450" 
d="M280 700l140 -150h-130l-65 75l-65 -75h-130l140 150h110z" />
    <glyph glyph-name="caron" unicode="&#x2c7;" horiz-adv-x="450" 
d="M170 550l-140 150h130l65 -75l65 75h130l-140 -150h-110z" />
    <glyph glyph-name="breve" unicode="&#x2d8;" horiz-adv-x="410" 
d="M380 700v-85l-35 -35h-280l-35 35v85h110v-60h130v60h110z" />
    <glyph glyph-name="dotaccent" unicode="&#x2d9;" horiz-adv-x="250" 
d="M220 605l-95 -95l-95 95l95 95z" />
    <glyph glyph-name="ring" unicode="&#x2da;" horiz-adv-x="240" 
d="M210 700v-170h-180v170h90v-60h-30v-50h60v110h60z" />
    <glyph glyph-name="ogonek" unicode="&#x2db;" horiz-adv-x="245" 
d="M115 -140h100v-15l-45 -50h-110l-30 30v85l110 90h40l-65 -100v-40z" />
    <glyph glyph-name="tilde" unicode="&#x2dc;" horiz-adv-x="435" 
d="M320 700h85v-80l-65 -70h-90l-95 65h-20l-20 -20v-45h-85v80l65 70h90l95 -65h20l20 20v45z" />
    <glyph glyph-name="hungarumlaut" unicode="&#x2dd;" horiz-adv-x="445" 
d="M85 700h140l-140 -170h-55zM415 700l-140 -170h-55l55 170h140z" />
    <glyph glyph-name="afii10023" unicode="&#x401;" 
d="M240 770h-115v105h115v-105zM330 875h115v-105h-115v105zM490 545h-85v45h-150v-480h150v55h85v-165h-420v700h420v-155zM310 410h150v-80h-150v80z" />
    <glyph glyph-name="afii10051" unicode="&#x402;" horiz-adv-x="685" 
d="M310 0h-185v535h185v-535zM10 700h480v-120h-480v120zM460 350h-100v100h220l45 -45v-360l-45 -45h-190v110h70v240z" />
    <glyph glyph-name="afii10052" unicode="&#x403;" horiz-adv-x="490" 
d="M460 700v-175h-85v55h-120v-580h-185v700h390zM415 930l-140 -170h-65l55 170h150z" />
    <glyph glyph-name="afii10053" unicode="&#x404;" horiz-adv-x="565" 
d="M485 320h-181v100h181v-100zM505 700v-160h-90v60h-160v-480h160v70h90v-190h-390l-45 45v610l45 45h390z" />
    <glyph glyph-name="afii10054" unicode="&#x405;" horiz-adv-x="550" 
d="M60 395v260v0l45 45h350v-150h-70v40h-140v-240h-140zM490 345v-300v0l-45 -45h-380v160h70v-50h170v280h140z" />
    <glyph glyph-name="afii10055" unicode="&#x406;" horiz-adv-x="325" 
d="M255 700v-700h-185v700h185z" />
    <glyph glyph-name="afii10056" unicode="&#x407;" horiz-adv-x="325" 
d="M255 700v-700h-185v700h185zM121 770h-115v105h115v-105zM211 875h115v-105h-115v105z" />
    <glyph glyph-name="afii10057" unicode="&#x408;" horiz-adv-x="505" 
d="M435 700v-655l-45 -45h-320l-45 45v140h135v-75h90v590h185z" />
    <glyph glyph-name="afii10058" unicode="&#x409;" horiz-adv-x="845" 
d="M600 360h-60v110h200l45 -45v-380l-45 -45h-200v110h60v250zM10 0l180 700h55v-403l-55 -297h-180zM480 700v-700h-175v700h175z" />
    <glyph glyph-name="afii10059" unicode="&#x40a;" horiz-adv-x="910" 
d="M555 700v-700h-175v355h-85v110h85v235h175zM70 700h175v-700h-175v700zM665 360h-60v110h200l45 -45v-380l-45 -45h-200v110h60v250z" />
    <glyph glyph-name="afii10060" unicode="&#x40b;" horiz-adv-x="665" 
d="M310 0h-185v535h185v-535zM605 0h-165v340h-80v110h200l45 -45v-405zM10 700h480v-120h-480v120z" />
    <glyph glyph-name="afii10061" unicode="&#x40c;" horiz-adv-x="625" 
d="M625 0h-210l-110 250v185l95 265h170l-130 -325zM70 700v-700h185v700h-185zM475 930l-140 -170h-65l55 170h150z" />
    <glyph glyph-name="afii10062" unicode="&#x40e;" horiz-adv-x="590" 
d="M405 700h165l-220 -700h-240v110h110zM20 700l190 -465l80 235l-70 230h-200zM480 900v-85l-35 -35h-280l-35 35v85h110v-60h130v60h110z" />
    <glyph glyph-name="afii10145" unicode="&#x40f;" horiz-adv-x="685" 
d="M255 700v-590h175v590h185v-700h-150l-122 -140l-123 140h-150v700h185z" />
    <glyph glyph-name="afii10017" unicode="&#x410;" horiz-adv-x="650" 
d="M255 385h95v-110h-95v-275h-185v655l45 45h140v-315zM580 655l-45 45h-230v-110h90v-590h185v655z" />
    <glyph glyph-name="afii10018" unicode="&#x411;" horiz-adv-x="630" 
d="M565 0h-255v110h70v180h-70v110h210l45 -45v-355zM555 700v-165h-85v55h-215v-590h-185v700h485z" />
    <glyph glyph-name="afii10019" unicode="&#x412;" horiz-adv-x="665" 
d="M595 330v-330h-285v110h100v220h-100v100h100v160h-100v110h229l46 -45v-220l-55 -55zM255 700v-700h-185v700h185z" />
    <glyph glyph-name="afii10020" unicode="&#x413;" horiz-adv-x="490" 
d="M460 700v-175h-85v55h-120v-580h-185v700h390z" />
    <glyph glyph-name="afii10021" unicode="&#x414;" horiz-adv-x="670" 
d="M270 180h-175v475l45 45h435v-520h-175v420h-130v-420zM140 -80h-140v210h670v-210h-140v80h-390v-80z" />
    <glyph glyph-name="afii10022" unicode="&#x415;" 
d="M490 545h-85v45h-150v-480h150v55h85v-165h-420v700h420v-155zM310 410h150v-80h-150v80z" />
    <glyph glyph-name="afii10024" unicode="&#x416;" horiz-adv-x="905" 
d="M185 375l-130 325h170l95 -265v-185l-110 -250h-210zM905 0h-210l-110 250v185l95 265h170l-130 -325zM370 700v-700h165v700h-165z" />
    <glyph glyph-name="afii10025" unicode="&#x417;" horiz-adv-x="535" 
d="M50 0v160h90v-50h140v210h-160v100h160v190h-130v-50h-90v140h360l45 -45v-240l-45 -45l45 -45v-280l-45 -45h-370z" />
    <glyph glyph-name="afii10026" unicode="&#x418;" horiz-adv-x="715" 
d="M255 0h-185v700h185v-700zM645 700h-185v-700h185v700zM410 385v230l-105 -300v-230z" />
    <glyph glyph-name="afii10027" unicode="&#x419;" horiz-adv-x="715" 
d="M535 890v-85l-35 -35h-280l-35 35v85h110v-60h130v60h110zM255 0h-185v700h185v-700zM645 0h-185v700h185v-700zM305 85v230l105 300v-230z" />
    <glyph glyph-name="afii10028" unicode="&#x41a;" horiz-adv-x="625" 
d="M625 0h-210l-110 250v185l95 265h170l-130 -325zM70 700v-700h185v700h-185z" />
    <glyph glyph-name="afii10029" unicode="&#x41b;" horiz-adv-x="592" 
d="M20 0l146 620l70 -280l-56 -340h-160zM362 0l-166 700h190l186 -700h-210z" />
    <glyph glyph-name="afii10030" unicode="&#x41c;" horiz-adv-x="880" 
d="M255 700v-700h-185v700h185zM440 260l125 355h10v-320l-120 -245h-30l-120 245v320h10zM810 700v-700h-185v700h185z" />
    <glyph glyph-name="afii10031" unicode="&#x41d;" horiz-adv-x="705" 
d="M70 700h185v-700h-185v700zM450 700v-265h-145v-110h145v-325h185v700h-185z" />
    <glyph glyph-name="afii10032" unicode="&#x41e;" horiz-adv-x="660" 
d="M70 45v610l45 45h140v-590h100v-110h-240zM405 0h140l45 45v610l-45 45h-240v-110h100v-590z" />
    <glyph glyph-name="afii10033" unicode="&#x41f;" horiz-adv-x="685" 
d="M615 700v-700h-185v590h-175v-590h-185v700h545z" />
    <glyph glyph-name="afii10034" unicode="&#x420;" horiz-adv-x="615" 
d="M255 0h-185v700h185v-700zM555 245v410l-45 45h-200v-110h60v-280h-60v-110h200z" />
    <glyph glyph-name="afii10035" unicode="&#x421;" horiz-adv-x="520" 
d="M470 700v-180h-90v70h-125v-480h125v90h90v-200h-355l-45 45v610l45 45h355z" />
    <glyph glyph-name="afii10036" unicode="&#x422;" horiz-adv-x="535" 
d="M20 700h494v-115h-494v115zM360 0v534h-185v-534h185z" />
    <glyph glyph-name="afii10037" unicode="&#x423;" horiz-adv-x="590" 
d="M405 700h165l-220 -700h-240v110h110zM20 700l190 -465l80 235l-70 230h-200z" />
    <glyph glyph-name="afii10038" unicode="&#x424;" horiz-adv-x="915" 
d="M235 130h80v-100h-200l-45 45v560l45 45h200v-100h-80v-450zM365 740h185v-805h-185v805zM680 580h-80v100h200l45 -45v-560l-45 -45h-200v100h80v450z" />
    <glyph glyph-name="afii10039" unicode="&#x425;" horiz-adv-x="640" 
d="M430 0l-85 260v200l75 240h180l-115 -335l145 -365h-200zM10 0l145 365l-115 335h180l75 -240v-200l-85 -260h-200z" />
    <glyph glyph-name="afii10040" unicode="&#x426;" horiz-adv-x="700" 
d="M680 -145l-190 145h-75v700h185v-590h80v-255zM366 110h-111v590h-185v-700v0h296v110z" />
    <glyph glyph-name="afii10041" unicode="&#x427;" horiz-adv-x="650" 
d="M395 700h185v-700h-185v700zM105 230h240v110h-100v360h-185v-425z" />
    <glyph glyph-name="afii10042" unicode="&#x428;" horiz-adv-x="870" 
d="M800 110h-730v-110h730v110zM520 160h-170v540h170v-540zM240 160h-170v540h170v-540zM800 160h-170v540h170v-540z" />
    <glyph glyph-name="afii10043" unicode="&#x429;" horiz-adv-x="905" 
d="M885 110v-255l-190 145h-625v110h815zM520 160h-170v540h170v-540zM800 160h-170v540h170v-540zM70 700h170v-540h-170v540z" />
    <glyph glyph-name="afii10044" unicode="&#x42a;" horiz-adv-x="750" 
d="M0 700h150v-230h-25l-125 200v30zM200 45v655h185v-590h70v-110h-210zM505 370h-70v110h210l45 -45v-390l-45 -45h-140v370z" />
    <glyph glyph-name="afii10045" unicode="&#x42b;" horiz-adv-x="895" 
d="M70 45v655h185v-590h70v-110h-210zM375 0h140l45 45v390l-45 45h-210v-110h70v-370zM640 700v-700h185v700h-185z" />
    <glyph glyph-name="afii10046" unicode="&#x42c;" horiz-adv-x="620" 
d="M70 45v655h185v-590h70v-110h-210zM375 0h140l45 45v390l-45 45h-210v-110h70v-370z" />
    <glyph glyph-name="afii10047" unicode="&#x42d;" horiz-adv-x="565" 
d="M450 700l45 -45v-610l-45 -45h-390v190h90v-70h160v480h-160v-60h-90v160h390zM80 420h181v-100h-181v100z" />
    <glyph glyph-name="afii10048" unicode="&#x42e;" horiz-adv-x="965" 
d="M255 700v-275h85v-100h-85v-325h-185v700h185zM395 45v610l45 45h140v-590h50v-110h-190zM710 590h-50v110h190l45 -45v-610l-45 -45h-140v590z" />
    <glyph glyph-name="afii10049" unicode="&#x42f;" horiz-adv-x="660" 
d="M405 700h185v-700h-185v700zM245 365v225h100v110h-220l-45 -45v-345l45 -45h220v100h-100zM330 210h-175l-135 -210h205z" />
    <glyph glyph-name="afii10065" unicode="&#x430;" horiz-adv-x="560" 
d="M100 0l-45 45v225l45 45h185v-75h-90v-150h90v-90h-185zM335 0v430h-230v70h350l45 -45v-455h-165z" />
    <glyph glyph-name="afii10066" unicode="&#x431;" horiz-adv-x="560" 
d="M370 0v330h-95v85h185l45 -45v-325l-45 -45h-90zM115 0l-55 55v445l420 200v-140l-255 -80v-390h85v-90h-195z" />
    <glyph glyph-name="afii10067" unicode="&#x432;" horiz-adv-x="575" 
d="M515 305l-45 -45l45 -45v-170l-45 -45h-195v90h85v150h-85v70h85v120h-85v70h195l45 -45v-150zM60 455l45 45h120v-500h-165v455z" />
    <glyph glyph-name="afii10068" unicode="&#x433;" horiz-adv-x="385" 
d="M385 500v-90h-160v-410h-165v500h325z" />
    <glyph glyph-name="afii10069" unicode="&#x434;" horiz-adv-x="610" 
d="M355 140v280h-110v-280h-155v315l45 45h380v-360h-160zM480 -80v80h-350v-80h-120v170h590v-170h-120z" />
    <glyph glyph-name="afii10070" unicode="&#x435;" horiz-adv-x="535" 
d="M435 500l45 -45v-240l-45 -45h-155v90h70v240h85zM60 66l65 -66h350v90h-250v330h75v80h-175l-65 -65v-369z" />
    <glyph glyph-name="afii10072" unicode="&#x436;" horiz-adv-x="795" 
d="M630 0l-90 185v135l75 180h140l-110 -230l150 -270h-165zM0 0l150 270l-110 230h140l75 -180v-135l-90 -185h-165zM480 0h-165v500h165v-500z" />
    <glyph glyph-name="afii10073" unicode="&#x437;" horiz-adv-x="475" 
d="M415 305l-45 -45l45 -45v-170l-45 -45h-330v90h210v130h-150v80h150v120h-200v80h320l45 -45v-150z" />
    <glyph glyph-name="afii10074" unicode="&#x438;" horiz-adv-x="635" 
d="M60 500h165v-500h-165v500zM575 500h-165v-500h165v500zM275 50h5l80 200v180h-5l-80 -200v-180z" />
    <glyph glyph-name="afii10075" unicode="&#x439;" horiz-adv-x="635" 
d="M440 570h-230l-35 35v70h95v-50h110v50h95v-70zM60 500h165v-500h-165v500zM575 0h-165v500h165v-500zM275 230l80 200h5v-180l-80 -200h-5v180z" />
    <glyph glyph-name="afii10076" unicode="&#x43a;" 
d="M375 0l-100 190v125l85 185h140l-110 -230l150 -270h-165zM60 0h165v500h-165v-500z" />
    <glyph glyph-name="afii10077" unicode="&#x43b;" horiz-adv-x="495" 
d="M15 0l128 455l52 -225l-45 -230h-135zM300 0l-120 500h160l140 -500h-180z" />
    <glyph glyph-name="afii10078" unicode="&#x43c;" horiz-adv-x="750" 
d="M60 500h165v-500h-165v500zM475 450h-15l-85 -245l-85 245h-15v-230l90 -185h20l90 185v230zM690 0h-165v500h165v-500z" />
    <glyph glyph-name="afii10079" unicode="&#x43d;" horiz-adv-x="600" 
d="M225 0h-165v500h165v-500zM375 500v-190h-100v-80h100v-230h165v500h-165z" />
    <glyph glyph-name="afii10080" unicode="&#x43e;" horiz-adv-x="575" 
d="M105 0l-45 45v410l45 45h120v-410h75v-90h-195zM470 500l45 -45v-410l-45 -45h-120v410h-75v90h195z" />
    <glyph glyph-name="afii10081" unicode="&#x43f;" horiz-adv-x="600" 
d="M540 500v-500h-165v410h-150v-410h-165v500h480z" />
    <glyph glyph-name="afii10082" unicode="&#x440;" horiz-adv-x="570" 
d="M360 100v320h-90v80h195l45 -45v-390l-45 -45h-195v80h90zM60 -200h165v700h-165v-700z" />
    <glyph glyph-name="afii10083" unicode="&#x441;" horiz-adv-x="435" 
d="M105 0l-45 45v410l45 45h285v-80h-165v-330h180v-90h-300z" />
    <glyph glyph-name="afii10084" unicode="&#x442;" horiz-adv-x="445" 
d="M425 500v-90h-120v-410h-165v410h-120v90h405z" />
    <glyph glyph-name="afii10085" unicode="&#x443;" horiz-adv-x="520" 
d="M510 500l-240 -700h-200v90h90l210 610h140zM10 500l160 -450l70 210l-50 240h-180z" />
    <glyph glyph-name="afii10086" unicode="&#x444;" horiz-adv-x="795" 
d="M220 80v340h50v80h-165l-45 -45v-410l45 -45h165v80h-50zM525 80v-80h165l45 45v410l-45 45h-165v-80h50v-340h-50zM315 700h165v-900h-165v900z" />
    <glyph glyph-name="afii10087" unicode="&#x445;" horiz-adv-x="530" 
d="M350 0l-60 170v135l56 195h151l-97 -240l130 -260h-180zM0 0l130 260l-97 240h151l56 -195v-135l-60 -170h-180z" />
    <glyph glyph-name="afii10088" unicode="&#x446;" horiz-adv-x="610" 
d="M540 500v-395h50v-235l-175 130h-40v500h165zM325 0v105h-100v395h-165v-500h265z" />
    <glyph glyph-name="afii10089" unicode="&#x447;" horiz-adv-x="570" 
d="M50 500h165v-245h80v-90h-200l-45 45v290zM345 0h165v500h-165v-500z" />
    <glyph glyph-name="afii10090" unicode="&#x448;" horiz-adv-x="740" 
d="M440 155h-140v345h140v-345zM60 155v345h140v-345h-140zM680 155h-140v345h140v-345zM60 105h620v-105h-620v105z" />
    <glyph glyph-name="afii10091" unicode="&#x449;" horiz-adv-x="750" 
d="M730 -130l-175 130h-495v105h670v-235zM440 155h-140v345h140v-345zM60 155v345h140v-345h-140zM680 155h-140v345h140v-345z" />
    <glyph glyph-name="afii10092" unicode="&#x44a;" horiz-adv-x="680" 
d="M125 290h-25l-100 175v35h125v-210zM340 0h-165v500h165v-500zM390 0v70h75v225h-75v70h195l45 -45v-275l-45 -45h-195z" />
    <glyph glyph-name="afii10093" unicode="&#x44b;" horiz-adv-x="820" 
d="M225 0h-165v500h165v-500zM460 0l45 45v275l-45 45h-185v-70h65v-225h-65v-70h185zM760 0h-165v500h165v-500z" />
    <glyph glyph-name="afii10094" unicode="&#x44c;" horiz-adv-x="565" 
d="M225 0h-165v500h165v-500zM470 0l45 45v275l-45 45h-195v-70h75v-225h-75v-70h195z" />
    <glyph glyph-name="afii10095" unicode="&#x44d;" horiz-adv-x="455" 
d="M175 300v-85h-105v85h105zM50 0v90h180v330h-165v80h285l45 -45v-410l-45 -45h-300z" />
    <glyph glyph-name="afii10096" unicode="&#x44e;" horiz-adv-x="845" 
d="M60 0v500h165v-200h75v-80h-75v-220h-165zM395 0l-45 45v410l45 45h120v-410h65v-90h-185zM740 500l45 -45v-410l-45 -45h-120v410h-65v90h185z" />
    <glyph glyph-name="afii10097" unicode="&#x44f;" horiz-adv-x="580" 
d="M305 150h-145l-130 -150h180zM355 500h165v-500h-165v500zM110 500l-45 -45v-215l45 -45h195v70h-95v165h95v70h-195z" />
    <glyph glyph-name="afii10071" unicode="&#x451;" 
d="M435 500l45 -45v-240l-45 -45h-155v90h70v240h85zM60 435l65 65h175v-80h-75v-330h250v-90h-350l-65 66v369zM230 585h-115v105h115v-105zM320 690h115v-105h-115v105z" />
    <glyph glyph-name="afii10099" unicode="&#x452;" horiz-adv-x="610" 
d="M90 700h165v-70h215v-80h-215v-550h-165v550h-80v80h80v70zM395 -110v470h-90v100h200l45 -45v-570l-45 -45h-180v90h70z" />
    <glyph glyph-name="afii10100" unicode="&#x453;" horiz-adv-x="385" 
d="M385 500v-90h-160v-410h-165v500h325zM385 740l-140 -170h-65l55 170h150z" />
    <glyph glyph-name="afii10101" unicode="&#x454;" horiz-adv-x="455" 
d="M105 0l-45 45v410l45 45h285v-80h-165v-330h180v-90h-300zM385 300v-85h-105v85h105z" />
    <glyph glyph-name="afii10102" unicode="&#x455;" horiz-adv-x="460" 
d="M85 250l-35 35v180l35 35h285v-70h-165v-180h-120zM375 290l35 -35v-220l-35 -35h-315v80h195v210h120z" />
    <glyph glyph-name="afii10103" unicode="&#x456;" horiz-adv-x="285" 
d="M225 0h-165v500h165v-500zM60 700h165v-130h-165v130z" />
    <glyph glyph-name="afii10104" unicode="&#x457;" horiz-adv-x="285" 
d="M225 0h-165v500h165v-500zM100 580h-115v105h115v-105zM190 685h115v-105h-115v105z" />
    <glyph glyph-name="afii10105" unicode="&#x458;" horiz-adv-x="300" 
d="M75 700h165v-130h-165v130zM240 -135v635h-165v-605h-105v-95h205z" />
    <glyph glyph-name="afii10106" unicode="&#x459;" horiz-adv-x="755" 
d="M475 0v70h65v200h-65v80h185l45 -45v-260l-45 -45h-185zM10 0l125 500h65v-295l-30 -205h-160zM255 0v500h165v-500h-165z" />
    <glyph glyph-name="afii10107" unicode="&#x45a;" horiz-adv-x="815" 
d="M215 0h-155v500h155v-500zM500 0v500h-155v-150h-80v-80h80v-270h155zM720 0l45 45v260l-45 45h-175v-80h65v-200h-65v-70h175z" />
    <glyph glyph-name="afii10108" unicode="&#x45b;" horiz-adv-x="610" 
d="M395 0v360h-90v100h200l45 -45v-415h-155zM90 700h165v-70h215v-80h-215v-550h-165v550h-80v80h80v70z" />
    <glyph glyph-name="afii10109" unicode="&#x45c;" 
d="M375 0l-100 190v125l85 185h140l-110 -230l150 -270h-165zM60 0h165v500h-165v-500zM435 740l-140 -170h-65l55 170h150z" />
    <glyph glyph-name="afii10110" unicode="&#x45e;" horiz-adv-x="520" 
d="M510 500l-240 -700h-200v90h90l210 610h140zM10 500l160 -450l70 210l-50 240h-180zM435 710v-85l-35 -35h-280l-35 35v85h110v-60h130v60h110z" />
    <glyph glyph-name="afii10193" unicode="&#x45f;" horiz-adv-x="605" 
d="M380 500h165v-500h-135l-107 -130l-108 130h-135v500h165v-410h155v410z" />
    <glyph glyph-name="afii10050" unicode="&#x490;" horiz-adv-x="460" 
d="M255 0h-185v700h305v65h85v-185h-205v-580z" />
    <glyph glyph-name="afii10098" unicode="&#x491;" horiz-adv-x="385" 
d="M385 410h-160v-410h-165v500h250v70h75v-160z" />
    <glyph glyph-name="uni1E9E" unicode="&#x1e9e;" horiz-adv-x="605" 
d="M245 0h-175v560l90 90h325l60 -60v-80l-75 -100h-145l80 110v40h-160v-560zM320 360v-90h65v-170h-95v-100h180l85 85v190l-85 85h-150z" />
    <glyph glyph-name="endash" unicode="&#x2013;" horiz-adv-x="480" 
d="M40 320h400v-100h-400v100z" />
    <glyph glyph-name="emdash" unicode="&#x2014;" horiz-adv-x="620" 
d="M40 320h540v-100h-540v100z" />
    <glyph glyph-name="quoteleft" unicode="&#x2018;" horiz-adv-x="215" 
d="M110 700v-115h65v-140h-135v255h70z" />
    <glyph glyph-name="quoteright" unicode="&#x2019;" horiz-adv-x="215" 
d="M105 445v115h-65v140h135v-255h-70z" />
    <glyph glyph-name="quotesinglbase" unicode="&#x201a;" horiz-adv-x="215" 
d="M105 -115v115h-65v140h135v-255h-70z" />
    <glyph glyph-name="quotedblleft" unicode="&#x201c;" horiz-adv-x="425" 
d="M320 700v-115h65v-140h-135v255h70zM110 700v-115h65v-140h-135v255h70z" />
    <glyph glyph-name="quotedblright" unicode="&#x201d;" horiz-adv-x="425" 
d="M105 445v115h-65v140h135v-255h-70zM315 445v115h-65v140h135v-255h-70z" />
    <glyph glyph-name="quotedblbase" unicode="&#x201e;" horiz-adv-x="425" 
d="M105 -115v115h-65v140h135v-255h-70zM315 -115v115h-65v140h135v-255h-70z" />
    <glyph glyph-name="dagger" unicode="&#x2020;" horiz-adv-x="490" 
d="M30 505l160 -15l-10 210h130l-10 -210l160 15v-100l-150 10v-615h-130v615l-150 -10v100z" />
    <glyph glyph-name="daggerdbl" unicode="&#x2021;" horiz-adv-x="510" 
d="M40 95l150 -10v330l-150 -10v100l160 -15l-10 210h130l-10 -210l160 15v-100l-150 10v-330l150 10v-100l-160 15l10 -210h-130l10 210l-160 -15v100z" />
    <glyph glyph-name="bullet" unicode="&#x2022;" horiz-adv-x="445" 
d="M280 220h-115l-75 75v115l75 75h115l75 -75v-115z" />
    <glyph glyph-name="ellipsis" unicode="&#x2026;" horiz-adv-x="655" 
d="M175 0h-135v140h135v-140zM395 0h-135v140h135v-140zM615 0h-135v140h135v-140z" />
    <glyph glyph-name="perthousand" unicode="&#x2030;" horiz-adv-x="1230" 
d="M655 700l-310 -700h-135l310 700h135zM225 560h120v100l-40 40h-215l-40 -40v-100h120v80h55v-80zM225 420h-55v80h-120v-100l40 -40h215l40 40v100h-120v-80zM695 200h120v100l-40 40h-215l-40 -40v-100h120v80h55v-80zM695 60h-55v80h-120v-100l40 -40h215l40 40v100
h-120v-80zM1060 200h120v100l-40 40h-215l-40 -40v-100h120v80h55v-80zM1060 60h-55v80h-120v-100l40 -40h215l40 40v100h-120v-80z" />
    <glyph glyph-name="guilsinglleft" unicode="&#x2039;" horiz-adv-x="305" 
d="M190 40l-150 225l150 225l75 -50l-115 -175l115 -175z" />
    <glyph glyph-name="guilsinglright" unicode="&#x203a;" horiz-adv-x="305" 
d="M40 90l115 175l-115 175l75 50l150 -225l-150 -225z" />
    <glyph glyph-name="fraction" unicode="&#x2044;" horiz-adv-x="360" 
d="M330 700l-170 -700h-130l170 700h130z" />
    <glyph glyph-name="foursuperior" unicode="&#x2074;" horiz-adv-x="400" 
d="M360 280h-120v280h120v-280zM200 390h-180l120 310h115l-85 -220h30v-90z" />
    <glyph glyph-name="Euro" unicode="&#x20ac;" horiz-adv-x="635" 
d="M510 380h-174v80h194zM336 320h164l-20 -80h-144v80zM540 700l65 -65v-35h-275l-45 -45v-410l45 -45h275v-35l-65 -65h-280l-130 130v110h-100l20 80h80v60h-100l20 80h80v110l130 130h280z" />
    <glyph glyph-name="uni20B4" unicode="&#x20b4;" horiz-adv-x="600" 
d="M435 320h135v-70h-190zM125 320l-55 -70h-40v70h95zM535 65l-65 -65h-285l-100 100v85l290 385l-40 40h-140v-50h-91v75l66 65h250l100 -100v-85l-285 -380l35 -35h175v50h90v-85zM165 380h-135v70h190zM475 380l55 70h40v-70h-95z" />
    <glyph glyph-name="uni20BD" unicode="&#x20bd;" horiz-adv-x="635" 
d="M95 0v130h-55v90h55v60h-55v90h55v330h160v-700h-160zM530 700h-225v-90h115v-240h-115v-90h225l45 45v330zM500 220h-195v-90h195v90z" />
    <glyph glyph-name="afii61352" unicode="&#x2116;" horiz-adv-x="920" 
d="M190 0h-120v700h120l160 -370v-330l-160 400v-400zM400 0h120v700h-120v-700zM610 0h260v90h-260v-90zM640 450l-30 -30v-240l30 -30h70v300h-70zM770 450v-300h70l30 30v240l-30 30h-70z" />
    <glyph glyph-name="trademark" unicode="&#x2122;" horiz-adv-x="829" 
d="M278 620h-79v-250h-109v250h-80v80h268v-80zM349 370h111v330h-111v-330zM789 700h-110v-330h110v330zM585 400l59 120v150h-10l-64 -130l-65 130h-10v-150l60 -120h30z" />
    <glyph glyph-name="minus" unicode="&#x2212;" horiz-adv-x="520" 
d="M470 285h-420v95h420v-95z" />
    <glyph glyph-name="commaaccent" unicode="&#xf6c3;" horiz-adv-x="195" 
d="M95 -345v115h-65v140h135v-255h-70z" />
    <glyph glyph-name="cyrBreve" unicode="&#xf6d1;" horiz-adv-x="410" 
d="M380 890v-85l-35 -35h-280l-35 35v85h110v-60h130v60h110z" />
    <glyph glyph-name="cyrbreve" unicode="&#xf6d4;" horiz-adv-x="360" 
d="M295 570h-230l-35 35v70h95v-50h110v50h95v-70z" />
    <glyph glyph-name="Germandbls" horiz-adv-x="605" 
d="M245 0h-175v560l90 90h325l60 -60v-80l-75 -100h-145l80 110v40h-160v-560zM320 360v-90h65v-170h-95v-100h180l85 85v190l-85 85h-150z" />
    </font>
</defs>
</svg>
